<?xml version="1.0" standalone="no"?>
<!DOCTYPE svg PUBLIC "-//W3C//DTD SVG 1.1//EN" "http://www.w3.org/Graphics/SVG/1.1/DTD/svg11.dtd" >
<svg>
<metadata>
Created by FontForge 20090914 at Mon Oct 19 17:48:57 2020
 By www-data
Copyright &#239;&#190;&#169; 1997, 2001, Berthold LLC. All rights reserved. Akzidenz-Grotesk is a trademark of Berthold Types Limited.
</metadata>
<defs>
<font id="AkzidenzGroteskBQ-Cnd" horiz-adv-x="375" >
  <font-face 
    font-family="Akzidenz-Grotesk BQ Condensed"
    font-weight="500"
    font-stretch="condensed"
    units-per-em="1000"
    panose-1="0 0 0 0 0 0 0 0 0 0"
    ascent="800"
    descent="-200"
    x-height="500"
    cap-height="706"
    bbox="-47.002 -250 875 908"
    underline-thickness="59"
    underline-position="-234"
    unicode-range="U+0020-U+2122"
  />
<missing-glyph horiz-adv-x="500" 
 />
    <glyph glyph-name=".notdef" horiz-adv-x="500" 
 />
    <glyph glyph-name="space" unicode=" " horiz-adv-x="208" 
 />
    <glyph glyph-name="exclam" unicode="!" horiz-adv-x="208" 
d="M168 484l-22 -292h-44l-20 292v222h86v-222zM168 0h-86v118h86v-118z" />
    <glyph glyph-name="quotedbl" unicode="&#x22;" horiz-adv-x="272" 
d="M243 741l-24 -289h-28l-26 289h78zM106 741l-23 -289h-29l-25 289h77z" />
    <glyph glyph-name="numbersign" unicode="#" horiz-adv-x="538" 
d="M522 414h-124l-10 -107h121v-77h-129l-21 -230h-79l21 230h-87l-22 -230h-79l21 230h-119v77h125l10 107h-121v77h130l19 215h80l-20 -215h87l21 215h79l-21 -215h118v-77zM318 414h-88l-10 -107h88z" />
    <glyph glyph-name="dollar" unicode="$" horiz-adv-x="396" 
d="M371 157c0 -74.667 -28.333 -125 -85 -151c-14.667 -7.33301 -33.667 -12.333 -57 -15v-85h-57v85c-12 1.33301 -20.333 2.66602 -25 3.99902c-38.667 6.66699 -69.334 26.667 -92.001 60c-4 6.66699 -7.66699 13.167 -11 19.5s-5.83301 13.666 -7.5 21.999
s-3.16699 15 -4.5 20s-2.16602 12.667 -2.49902 23s-0.5 17.166 -0.5 20.499v23.5v21.5v39h82v-39c0 -33.333 0.666992 -54.666 2 -63.999c2.66699 -28.667 14 -49.667 34 -63c8.66699 -4.66699 17 -8.33398 25 -11.001v261l-42 44c-22.667 24.667 -37 41.334 -43 50.001
c-15.333 20.667 -25.833 40.667 -31.5 60s-8.5 43.333 -8.5 72c0 66.667 19 112.667 57 138c20 12.667 42.667 20.334 68 23.001v84h57l1 -84c40 -3.33301 70.333 -15.333 91 -36c15.333 -16 25 -34 29 -54s6 -44.667 6 -74v-54h-80v39c0 45.333 -8 75 -24 89
c-6 5.33301 -13.667 9 -23 11v-238l47 -51c23.333 -24.667 40.333 -44 51 -58s20.667 -32.667 30 -56s14 -48.666 14 -75.999zM172 457l0.000976562 179c-8 -3.33301 -14.667 -7.66602 -20 -12.999c-14.667 -14 -22 -36.333 -22 -67c0 -17.333 3 -33.333 9 -48
s10.667 -24.334 14 -29.001s9.66602 -12 18.999 -22zM285.001 158c0 14.667 -2.66797 28 -8.00098 40c-9.33301 22 -25.333 44.333 -48 67l1 -198c6.66699 2 14.334 5.66699 23.001 11c21.333 15.333 32 42 32 80z" />
    <glyph glyph-name="percent" unicode="%" horiz-adv-x="625" 
d="M604 221c0 -24 -0.664062 -59.334 -1.99707 -106.001c0 -32.667 -4.33301 -57.667 -13 -75c-16 -30 -45.667 -45 -89 -45c-26.667 0 -48 5.33301 -64 16c-12.667 8 -21.834 19.5 -27.501 34.5s-8.83398 28.833 -9.50098 41.5s-1.33398 36 -2.00098 70
c0 6.66699 -0.166992 16.834 -0.5 30.501s-0.5 24.167 -0.5 31.5c0 11.333 0.166992 28.333 0.5 51s0.5 39.667 0.5 51c0 55.333 13.667 91.666 41 108.999c18 11.333 38.333 17 61 17c20 0 38 -4.33301 54 -13c33.333 -17.333 50 -56 50 -116
c0 -10.667 0.166992 -26.667 0.5 -48s0.5 -37.666 0.5 -48.999zM509.003 705.999l-344 -706h-49l347 706h46zM229.003 485.999c0 -24 -0.664062 -59.3311 -1.99707 -105.998c0 -32.667 -4.33301 -57.667 -13 -75c-16 -30 -45.667 -45 -89 -45c-26.667 0 -48 5.33301 -64 16
c-12.667 8 -21.834 19.5 -27.501 34.5s-8.83398 28.833 -9.50098 41.5s-1.33398 36 -2.00098 70c0 6.66699 -0.166992 16.834 -0.5 30.501s-0.5 24.167 -0.5 31.5c0 11.333 0.166992 28.333 0.5 51s0.5 39.667 0.5 51c0 55.333 13.667 91.666 41 108.999
c18 11.333 38.333 17 61 17c20 0 38 -4.33301 54 -13c33.333 -17.333 50 -56 50 -116c0 -10.667 0.166992 -26.834 0.5 -48.501s0.5 -37.834 0.5 -48.501zM536.006 144.001c0 8 -0.169922 20.334 -0.50293 37.001s-0.5 29.334 -0.5 38.001l1 54c0 36 -0.333008 54 -1 54v7.5
c0 4.33301 -0.166992 7.16602 -0.5 8.49902s-0.666016 4 -0.999023 8s-0.666016 6.66699 -0.999023 8s-1 3.5 -2 6.5s-2 5.16699 -3 6.5s-2.5 3 -4.5 5s-4 3.5 -6 4.5s-4.66699 1.83301 -8 2.5s-6.66602 1 -9.99902 1c-18 0 -29 -9 -33 -27
c-2 -10.667 -3 -34.334 -3 -71.001v-66c0 -10 0.166992 -24.5 0.5 -43.5s0.5 -33.167 0.5 -42.5v-38c0 -27.333 11.667 -41 35 -41c20 0 31.333 8.33301 34 25c2 16 3 37 3 63zM161.003 409.002c0 8.66699 -0.167969 21.332 -0.500977 37.999s-0.5 29 -0.5 37v34v40v34
c-1.33301 26.667 -5 43 -11 49c-5.33301 6 -13.666 9 -24.999 9c-18 0 -29 -9 -33 -27c-2 -11.333 -3 -35 -3 -71v-66c0 -9.33301 0.166992 -23.666 0.5 -42.999s0.5 -34 0.5 -44v-37c0 -27.333 11.667 -41 35 -41c20 0 31.333 8.33301 34 25c2 16 3 37 3 63z" />
    <glyph glyph-name="ampersand" unicode="&#x26;" horiz-adv-x="458" 
d="M437 -4c-41.333 -2.66699 -75 6.00098 -101 26.001c-4.66699 3.33301 -12 10 -22 20l-18 -15c-29.333 -24.667 -67.666 -37 -114.999 -37c-48.667 0 -87.667 15.167 -117 45.5s-43.666 69.833 -42.999 118.5c0 48.667 16 95.334 48 140.001c6 8.66699 11 15 15 19l17 17
l25 25c-30.667 64 -46 113.333 -46 148c0 14 2 27 6 39c17.333 53.333 55.666 80 114.999 80c15.333 0 31 -2.66699 47 -8c10.667 -3.33301 21 -8.33301 31 -15s20.167 -18.167 30.5 -34.5s15.5 -35.5 15.5 -57.5c0 -31.333 -12 -64.333 -36 -99
c-16 -23.333 -37.333 -47.333 -64 -72c15.333 -32 45 -84.333 89 -157c7.33301 15.333 11.666 24.666 12.999 27.999c7.33301 23.333 11 56.333 11 99h77c0.666992 -10.667 0.666992 -21.667 0 -33c-2.66699 -44 -12.334 -85.667 -29.001 -125
c-2.66699 -8 -10 -22.333 -22 -43c3.33301 -4.66699 7 -9.33398 11 -14.001c12.667 -13.333 33.334 -20 62.001 -20v-75zM251 505.001c0 18 -5.16699 30.832 -15.5 38.499s-20.833 11.5 -31.5 11.5c-16 0 -28 -5 -36 -15c-6.66699 -8.66699 -10 -21.667 -10 -39
c0 -22.667 11 -53.667 33 -93l14 14c30.667 30.667 46 58.334 46 83.001zM265 103c-22.667 30.667 -56.668 89.667 -102.001 177c-8.66699 -6.66699 -15.667 -13 -21 -19c-24.667 -26 -37 -62.333 -37 -109c0 -11.333 1.66699 -23.333 5 -36
c2.66699 -7.33301 6.16699 -14.5 10.5 -21.5s12.333 -14.333 24 -22s24.834 -11.5 39.501 -11.5c31.333 0 58.333 14 81 42z" />
    <glyph glyph-name="quotesingle" unicode="'" horiz-adv-x="136" 
d="M106 741l-23 -289h-29l-25 289h77z" />
    <glyph glyph-name="parenleft" unicode="(" horiz-adv-x="292" 
d="M283 -135l-40 -36c-23.333 24 -49.333 62 -78 114c-64 116 -96 227.667 -96 335c0 141.333 55.333 288 166 440l43 -38c-79.333 -111.333 -119 -242.333 -119 -393c0 -152 30.667 -277 92 -375c2 -3.33301 12.667 -19 32 -47z" />
    <glyph glyph-name="parenright" unicode=")" horiz-adv-x="292" 
d="M223 278c0 -106 -32.332 -217.665 -96.999 -334.998c-28.667 -51.333 -54.334 -89.333 -77.001 -114l-41 36c83.333 113.333 125 254.666 125 423.999c0 149.333 -40 279.666 -120 390.999l43 38c111.333 -146 167 -292.667 167 -440z" />
    <glyph glyph-name="asterisk" unicode="*" horiz-adv-x="332" 
d="M307 590l-96 -35l59 -80l-45 -34l-61 80l-54 -81l-46 34l54 81l-92 28l16 54l94 -26v98h57v-100l95 33z" />
    <glyph glyph-name="plus" unicode="+" horiz-adv-x="558" 
d="M475 261h-154v-169h-83v169h-155v73h155v170h83v-170h154v-73z" />
    <glyph glyph-name="comma" unicode="," horiz-adv-x="167" 
d="M126 -4c0 -37.333 -6 -67.167 -18 -89.5s-34.333 -36.833 -67 -43.5v52c25.333 6 38 28.333 38 67c0 8 -0.333008 14 -1 18h-37v118h85v-122z" />
    <glyph glyph-name="hyphen" unicode="-" horiz-adv-x="266" 
d="M241 253h-216v78h216v-78z" />
    <glyph glyph-name="period" unicode="." horiz-adv-x="167" 
d="M126 0h-85v118h85v-118z" />
    <glyph glyph-name="slash" unicode="/" horiz-adv-x="292" 
d="M287 706l-198 -706h-84l201 706h81z" />
    <glyph glyph-name="zero" unicode="0" 
d="M347 354c0 -14 -0.333984 -34.834 -1.00098 -62.501s-1 -48.167 -1 -61.5v-62c0 -70 -17.333 -118.667 -52 -146c-27.333 -20.667 -62 -31 -104 -31c-37.333 0 -69 7.66699 -95 23c-29.333 16.667 -47.5 39.834 -54.5 69.501s-10.5 78.5 -10.5 146.5v28
c-1.33301 66.667 -1.66602 117 -0.999023 151c0 9.33301 0.166992 23.5 0.5 42.5s0.5 33.5 0.5 43.5c0 32.667 0.666992 57 2 73c5.33301 64 30.333 107.333 75 130c23.333 11.333 50.333 17 81 17c33.333 0 62 -6.66699 86 -20c29.333 -16 48.833 -39.167 58.5 -69.5
s14.5 -66.833 14.5 -109.5c0 -18 0.166992 -45 0.5 -81s0.5 -63 0.5 -81zM257.999 220.999v290c0 48 -4.33301 80 -13 96c-11.333 19.333 -30.333 29 -57 29c-38 0 -60.667 -19.333 -68 -58c-3.33301 -20 -5 -74.667 -5 -164c0 -82 0.333008 -143.667 1 -185
c0 -47.333 0.666992 -78 2 -92c2 -26 10 -44.333 24 -55c12 -8.66699 27 -13 45 -13c33.333 0 54.333 11.667 63 35c5.33301 13.333 8 52.333 8 117z" />
    <glyph glyph-name="one" unicode="1" 
d="M242 0l-88 -0.000976562v554h-117v67c21.333 0 37 0.666992 47 2c27.333 2.66699 48 10.334 62 23.001s21.333 32.667 22 60h74v-706z" />
    <glyph glyph-name="two" unicode="2" 
d="M343 0l-309.001 -0.000976562v85l146 247c14.667 25.333 25.334 44.333 32.001 57c16 29.333 26.5 53.833 31.5 73.5s7.5 46.167 7.5 79.5c0 18.667 -1 32 -3 40c-7.33301 35.333 -28.333 53 -63 53c-16.667 0 -30.667 -5.66699 -42 -17
c-6.66699 -7.33301 -11.667 -16.666 -15 -27.999s-5 -19.5 -5 -24.5v-30.5v-81h-81v88c0 3.33301 0.166992 8.33301 0.5 15s0.5 11.334 0.5 14.001c2.66699 59.333 22.334 100.333 59.001 123c23.333 14 50.666 21 81.999 21c41.333 0 72.833 -10.333 94.5 -31
s36.5 -43.334 44.5 -68.001c7.33301 -23.333 11 -51.666 11 -84.999c0 -52 -10.333 -101 -31 -147c-7.33301 -16.667 -19 -38.334 -35 -65.001l-145 -243h220v-76z" />
    <glyph glyph-name="three" unicode="3" 
d="M343 169c0 -33.333 -4.00195 -61.0029 -12.002 -83.0029c-8.66699 -24 -24.667 -45.833 -48 -65.5s-56 -29.5 -98 -29.5c-44 0 -81 11.667 -111 35c-29.333 23.333 -44 66 -44 128c0 6 0.166992 15.5 0.5 28.5s0.5 22.833 0.5 29.5l80 -1
c-0.666992 -14 -0.333984 -35.333 0.999023 -64c0.666992 -16.667 2.5 -29.834 5.5 -39.501s9.83301 -18.5 20.5 -26.5c12 -8.66699 26 -13 42 -13c19.333 0 35 4.66699 47 14c4 3.33301 7.66699 7 11 11s6 8.83301 8 14.5s3.5 10.334 4.5 14.001
s1.83301 9.33398 2.5 17.001s1 12.667 1 15v16.5v14c0 4.66699 0.166992 11.834 0.5 21.501s0.5 16.834 0.5 21.501c0 34 -5.33301 59.333 -16 76c-13.333 20 -38.333 30 -75 30c-12 0 -21.333 -0.333008 -28 -1l1 79c26 0 41 0.333008 45 1
c18.667 2.66699 32.334 8.33398 41.001 17.001c16.667 15.333 25 43 25 83c0 21.333 -1 43 -3 65c-2 40.667 -22.667 61 -62 61c-16.667 0 -29.667 -4.66699 -39 -14c-14.667 -14.667 -22 -45 -22 -91c0 -12 0.333008 -21 1 -27h-80c-0.666992 18.667 -0.666992 37.667 0 57
c0.666992 23.333 2.83398 43.166 6.50098 59.499s11.5 32.333 23.5 48s28.333 27.167 49 34.5c20 6.66699 41.333 10 64 10c32.667 0 61.334 -7.66699 86.001 -23c21.333 -14 36.666 -33.333 45.999 -58s14 -59.667 14 -105c0 -38 -2.33301 -66.667 -7 -86
s-13.667 -34.666 -27 -45.999c-9.33301 -8 -25.333 -15 -48 -21c30.667 -8 52.334 -19.667 65.001 -35c7.33301 -10 13 -21.667 17 -35c7.33301 -24.667 11 -70.334 11 -137.001z" />
    <glyph glyph-name="four" unicode="4" 
d="M349 158h-62v-158h-83v158h-183v97l143 451h123v-473h62v-75zM208 627l-121 -394h117z" />
    <glyph glyph-name="five" unicode="5" 
d="M341 291c0 -13.333 -0.166016 -33.334 -0.499023 -60.001s-0.5 -47 -0.5 -61c-1.33301 -56 -12 -96.667 -32 -122c-28.667 -38 -71.334 -57 -128.001 -57c-49.333 0 -87.666 15 -114.999 45c-14 16 -23.333 32.667 -28 50c-6 18 -9 45.333 -9 82
c0 17.333 0.333008 30.333 1 39l83 -1c-1.33301 -54 2.33398 -89 11.001 -105c10 -20.667 30 -31 60 -31c25.333 0 44.333 8.66699 57 26c3.33301 4.66699 6 10 8 16s3.33301 13.5 4 22.5s1.16699 16.667 1.5 23s0.5 16.833 0.5 31.5v34
c0 6.66699 0.166992 16.834 0.5 30.501s0.5 24.167 0.5 31.5c0 38 -2 63.667 -6 77c-8 30 -28.333 45 -61 45c-14.667 0 -26.667 -3.66699 -36 -11c-15.333 -11.333 -23 -35.333 -23 -72h-80l11 382h273v-76h-193l-5 -176c1.33301 2.66699 6 6.66699 14 12
c20 12.667 43.667 19 71 19s51.666 -7.66699 72.999 -23c19.333 -14.667 32.166 -34.167 38.499 -58.5s9.5 -61.833 9.5 -112.5z" />
    <glyph glyph-name="six" unicode="6" 
d="M342 233c0 -30.667 -0.996094 -61.999 -2.99609 -93.999c-3.33301 -51.333 -16 -87 -38 -107c-28 -27.333 -67 -41 -117 -41c-44.667 0 -79.334 11 -104.001 33c-21.333 18.667 -34.333 41.167 -39 67.5s-7 71.166 -7 134.499v310c0 47.333 6.16699 83.5 18.5 108.5
s30.833 43.5 55.5 55.5c22 10 47.333 15 76 15c62.667 0 105.667 -20 129 -60c7.33301 -11.333 12.666 -23.833 15.999 -37.5s4.83301 -26.667 4.5 -39s-0.5 -25.833 -0.5 -40.5l-82 1c0 38 -2.33301 61.667 -7 71c-10.667 18 -30 27 -58 27
c-43.333 0 -66.333 -25.333 -69 -76c-0.666992 -10.667 -1 -42.667 -1 -96v-54c28 34 60.667 51 98 51c17.333 0 33.666 -3.33301 48.999 -10c33.333 -13.333 55.666 -36 66.999 -68c8 -24 12 -74.333 12 -151zM256.004 224.001c0 36 -0.333984 63.3311 -1.00098 81.998
c-1.33301 26 -5.33301 44 -12 54c-11.333 18.667 -30.666 28 -57.999 28c-30 0 -49.667 -12.667 -59 -38c-6 -17.333 -9 -57.666 -9 -120.999v-70c0 -26 3.66699 -46 11 -60c11.333 -20.667 31.333 -31 60 -31s48 11.333 58 34c6.66699 14.667 10 55.334 10 122.001z" />
    <glyph glyph-name="seven" unicode="7" 
d="M341 641c-9.33301 -17.333 -16 -30.333 -20 -39c-16.667 -36.667 -34 -84 -52 -142c-23.333 -78 -39.333 -150.333 -48 -217s-14 -147.667 -16 -243h-96c5.33301 163.333 32.333 316.333 81 459c10.667 32 31.667 88.333 63 169h-220v78h308v-65z" />
    <glyph glyph-name="eight" unicode="8" 
d="M343 222c0 -61.333 -3.00195 -103.336 -9.00195 -126.003c-10.667 -43.333 -35.667 -73.333 -75 -90c-24 -10 -49.333 -15 -76 -15c-32 0 -60.667 7 -86 21c-22 12.667 -38.333 30.5 -49 53.5s-16 56.833 -16 101.5c0 73.333 3 120 9 140
c4 14.667 10.333 27.334 19 38.001c12.667 16 30.334 26.333 53.001 31c-6.66699 0 -15.334 2.33301 -26.001 7c-23.333 11.333 -37.666 35 -42.999 71c-2.66699 18.667 -4 49 -4 91c0 74.667 20.333 124.334 61 149.001c22 14 51.333 21 88 21c57.333 0 98 -16.333 122 -49
c18 -23.333 27 -60.666 27 -111.999c0 -40.667 -1.33301 -71.334 -4 -92.001c-3.33301 -41.333 -20 -68 -50 -80c-3.33301 -1.33301 -10.666 -3.33301 -21.999 -6c20 -4 36.667 -13 50 -27c12 -12.667 20.167 -28.167 24.5 -46.5s6.5 -45.166 6.5 -80.499zM254.998 535.997
c0 33.333 -1.33301 54.667 -4 64c-7.33301 30.667 -28 45.667 -62 45c-18 0 -32.333 -4.33301 -43 -13c-16.667 -14 -25 -48.333 -25 -103c0 -20 0.333008 -35 1 -45c1.33301 -21.333 6.33301 -37.666 15 -48.999c12 -14.667 30 -22 54 -22c31.333 0 51 14.667 59 44
c2 9.33301 3.66699 35.666 5 78.999zM256.998 198.998c0 21.333 -0.333984 37.334 -1.00098 48.001c0 54.667 -23 81.667 -69 81c-25.333 0 -43.333 -8.33301 -54 -25c-4 -5.33301 -7 -11.5 -9 -18.5s-3.16699 -12.167 -3.5 -15.5s-0.666016 -10.5 -0.999023 -21.5
s-0.5 -16.833 -0.5 -17.5c0 -5.33301 -0.166992 -13 -0.5 -23s-0.5 -17.333 -0.5 -22c0 -4 0.166992 -10 0.5 -18s0.5 -14 0.5 -18c2.66699 -52.667 25.334 -79 68.001 -79c33.333 0 54.666 14.667 63.999 44c4 13.333 6 41.666 6 84.999z" />
    <glyph glyph-name="nine" unicode="9" 
d="M337 463c0 -25.333 -0.166016 -63.499 -0.499023 -114.499s-0.5 -89.167 -0.5 -114.5v-77c0 -52.667 -13 -93.667 -39 -123c-24.667 -28.667 -62.667 -43 -114 -43c-64.667 0 -109 23.667 -133 71c-8.66699 18.667 -13 43 -13 73c0 6 0.166992 14.667 0.5 26
s0.5 19.666 0.5 24.999h80v-26c-0.666992 -18 -0.666992 -27.333 0 -28c1.33301 -22.667 7.66602 -38.667 18.999 -48c11.333 -10 27.333 -15 48 -15c16.667 0 30.334 4.33301 41.001 13c11.333 8.66699 18.333 19.5 21 32.5s4.66699 35.167 6 66.5
c0 4.66699 0.166992 11.667 0.5 21s0.5 16.333 0.5 21c0 9.33301 -0.166992 22.833 -0.5 40.5s-0.5 31.167 -0.5 40.5c-31.333 -29.333 -65.333 -44 -102 -44c-42 0 -74.667 16 -98 48c-16 23.333 -24 64.666 -24 123.999c0 40.667 1 82 3 124
c1.33301 22.667 3 40.334 5 53.001s7 26.5 15 41.5s19.667 27.833 35 38.5c26 17.333 58.667 26 98 26c47.333 0 83.666 -12.667 108.999 -38c10 -8 19.333 -21 28 -39c4 -8 7.16699 -16 9.5 -24s3.83301 -18.333 4.5 -31s1.16699 -22.667 1.5 -30s0.333008 -21.5 0 -42.5
s-0.5 -36.833 -0.5 -47.5zM254.001 421.001v134c0 30 -7.66699 52.333 -23 67c-11.333 10.667 -26.333 16 -45 16c-29.333 0 -50.333 -13 -63 -39c-2.66699 -5.33301 -4.5 -10.833 -5.5 -16.5s-1.66699 -10.334 -2 -14.001s-0.5 -11.167 -0.5 -22.5v-27
c0 -4.66699 -0.166992 -12 -0.5 -22s-0.5 -17.667 -0.5 -23v-59c0 -14.667 2.66699 -28 8 -40c12 -26 33 -39 63 -39c22 0 39 7 51 21c6 7.33301 11 17 15 29c2 8.66699 3 20.334 3 35.001z" />
    <glyph glyph-name="colon" unicode=":" horiz-adv-x="208" 
d="M168 359h-86v118h86v-118zM168 0h-86v118h86v-118z" />
    <glyph glyph-name="semicolon" unicode=";" horiz-adv-x="208" 
d="M168 364h-86v113h86v-113zM168 -4c0 -37.333 -6.00195 -67.168 -18.002 -89.501s-34.667 -36.833 -68 -43.5v51c4.66699 2 8.83398 4 12.501 6s6.83398 4.5 9.50098 7.5l6.5 7.5c1.66699 2 3.16699 5.16699 4.5 9.5s2.33301 7.33301 3 9s1.16699 5.33398 1.5 11.001
s0.5 9.16699 0.5 10.5v12.5v12.5h-38v118h86v-122z" />
    <glyph glyph-name="less" unicode="&#x3c;" horiz-adv-x="559" 
d="M446 76l-358 194v78l358 195v-84l-279 -147l279 -145v-91z" />
    <glyph glyph-name="equal" unicode="=" horiz-adv-x="559" 
d="M474 351h-389v72h389v-72zM474 181h-389v72h389v-72z" />
    <glyph glyph-name="greater" unicode="&#x3e;" horiz-adv-x="559" 
d="M471 271l-358 -195v83l279 147l-279 146v90l358 -193v-78z" />
    <glyph glyph-name="question" unicode="?" horiz-adv-x="396" 
d="M360 554c0 -36.667 -1.33398 -62.9971 -4.00098 -78.9971c-2 -11.333 -5 -22.333 -9 -33s-7.5 -18.667 -10.5 -24s-10.333 -17.166 -22 -35.499l-26.5 -42.5c-9.33301 -14.667 -16 -26 -20 -34c-9.33301 -20 -14 -43.667 -14 -71c0 -20 0.333008 -35.333 1 -46h-66v39
c0 25.333 0.5 43.166 1.5 53.499s4.83301 25.166 11.5 44.499s18 43.666 34 72.999c14.667 26 23.334 42.333 26.001 49c8 18 12 45.667 12 83c0 3.33301 0.166992 8.66602 0.5 15.999s0.5 13 0.5 17c0 12.667 -1.33301 22.667 -4 30c-12 28.667 -35 43 -69 43
c-13.333 0 -25.666 -3 -36.999 -9c-12.667 -7.33301 -20.834 -16.666 -24.501 -27.999s-5.5 -26 -5.5 -44v-90h-78v100c0 35.333 5.33301 63.666 16 84.999c11.333 22 29.5 38.5 54.5 49.5s50.833 16.5 77.5 16.5c9.33301 0 19.333 -0.833008 30 -2.5s24 -5.16699 40 -10.5
s31 -14.833 45 -28.5s24.333 -30.5 31 -50.5c6 -18 9 -41.667 9 -71zM264.999 0.00292969h-86v118h86v-118z" />
    <glyph glyph-name="at" unicode="@" horiz-adv-x="816" 
d="M778 426c0 -43.333 -7.16895 -88.335 -21.502 -135.002s-33.166 -87 -56.499 -121c-46 -66.667 -96 -100 -150 -100c-48.667 0 -74.334 28.333 -77.001 85c-42 -56 -88.333 -84 -139 -84c-37.333 0 -67.166 14.667 -89.499 44s-33.5 68.666 -33.5 117.999
c0 73.333 21.167 139.166 63.5 197.499s90.166 87.5 143.499 87.5c29.333 0 55 -10.333 77 -31c12.667 -12.667 23.334 -30.667 32.001 -54l15 62h65l-57 -263c-1.33301 -6.66699 -2.66602 -16.667 -3.99902 -30s-2 -23.666 -2 -30.999c0 -27.333 9.33301 -41 28 -41
c20.667 0 43 15 67 45c25.333 30.667 45.166 67.834 59.499 111.501s21.5 87.834 21.5 132.501c0 76.667 -21 136.167 -63 178.5s-101 63.5 -177 63.5c-85.333 0 -161 -29 -227 -87c-57.333 -50.667 -98.666 -118.334 -123.999 -203.001
c-14.667 -51.333 -22 -98.666 -22 -141.999c0 -89.333 28.333 -161.833 85 -217.5s130.334 -83.5 221.001 -83.5c56 0 112.667 13.167 170 39.5s107.666 62.833 150.999 109.5l31 -41c-15.333 -15.333 -27 -26.666 -35 -33.999c-94 -83.333 -200.667 -125 -320 -125
c-73.333 0 -138.333 15.667 -195 47c-113.333 62 -170 164.333 -170 307c0 134.667 42.5 248.667 127.5 342s188.5 140 310.5 140c90.667 0 162.5 -25.833 215.5 -77.5s79.5 -121.5 79.5 -209.5zM501.998 354.998c0 29.333 -7 53 -21 71s-32.667 27 -56 27
c-35.333 0 -66.833 -22 -94.5 -66s-41.5 -94.333 -41.5 -151c0 -32 6 -56.667 18 -74s29 -26 51 -26c38 0 71.5 22 100.5 66s43.5 95 43.5 153z" />
    <glyph glyph-name="A" unicode="A" horiz-adv-x="396" 
d="M396 0h-92l-25 136h-164l-24 -136h-91l152 706h88zM264 212l-69 363l-65 -363h134z" />
    <glyph glyph-name="B" unicode="B" horiz-adv-x="437" 
d="M402 217c0 -44 -2.99805 -77.835 -8.99805 -101.502s-16.667 -44.167 -32 -61.5c-15.333 -18.667 -33 -32 -53 -40c-16.667 -6.66699 -33.334 -10.667 -50.001 -12s-45.334 -2 -86.001 -2h-122v706h175c57.333 0 99.333 -14.333 126 -43
c26.667 -29.333 40 -70.333 40 -123c0 -51.333 -10 -90.666 -30 -117.999c-12 -16 -26.667 -27.333 -44 -34c-11.333 -4.66699 -24.333 -7 -39 -7c25.333 0 47.333 -6.33301 66 -19c38.667 -25.333 58 -73.666 58 -144.999zM305.002 521.998
c0 42.667 -8.99805 71.667 -26.998 87c-14.667 12 -44.334 18 -89.001 18h-51v-211h60c19.333 0 33.666 0.666992 42.999 2c42.667 8 64 42.667 64 104zM315.004 193.998c0 50 -4.99902 84.666 -14.999 103.999c-6.66699 11.333 -14.667 20.333 -24 27
c-10.667 6.66699 -21.5 10.834 -32.5 12.501s-30.167 2.5 -57.5 2.5h-48v-263h51c27.333 -1.33301 47.666 -0.333008 60.999 3c22 4.66699 38.333 15.667 49 33s16 44.333 16 81z" />
    <glyph glyph-name="C" unicode="C" horiz-adv-x="417" 
d="M380 248c0 -33.333 -0.331055 -58.3359 -0.998047 -75.0029c0 -24.667 -1.33301 -45 -4 -61c-9.33301 -55.333 -37 -92 -83 -110c-22 -8 -48 -12 -78 -12c-44 0 -79.667 10.333 -107 31c-14 12 -25 24 -33 36c-12.667 19.333 -20.834 42.5 -24.501 69.5
s-5.5 67.5 -5.5 121.5v113c0 52.667 0.333008 92.334 1 119.001c1.33301 88.667 13.666 148.334 36.999 179.001c28.667 38.667 75 58 139 58c48.667 0 88 -15 118 -45c13.333 -14 22.833 -31.5 28.5 -52.5s8.5 -50.833 8.5 -89.5c0 -20.667 -0.333008 -36 -1 -46h-81
c0 34 -0.333008 59.667 -1 77s-2.66699 31 -6 41s-10.333 19 -21 27c-12.667 9.33301 -27.667 14 -45 14c-44 0 -70.667 -20.667 -80 -62c-6.66699 -29.333 -10 -106.666 -10 -231.999c0 -52.667 1 -105.334 3 -158.001c0 -2 0.166992 -7.66699 0.5 -17
s0.666016 -16.166 0.999023 -20.499s0.833008 -10.333 1.5 -18s2 -14.5 4 -20.5s4.33301 -11.333 7 -16c13.333 -23.333 37 -35 71 -35c18.667 0 34.334 5 47.001 15c21.333 16 32 55 32 117v52h82z" />
    <glyph glyph-name="D" unicode="D" horiz-adv-x="437" 
d="M394 389c0 -35.333 -0.666992 -87.667 -2 -157c0 -26 -1 -52 -3 -78c-6 -66.667 -30.667 -111.667 -74 -135c-6 -3.33301 -12 -6 -18 -8s-12.5 -3.66699 -19.5 -5l-18 -3.5c-5 -1 -11.833 -1.66699 -20.5 -2s-14.667 -0.5 -18 -0.5h-20.5h-18.5h-132v706h133
c60.667 0 103 -5.33301 127 -16c44.667 -20 71 -58 79 -114c3.33301 -24.667 5 -87 5 -187zM307 323.999c0 96.667 -0.333008 154.667 -1 174c-0.666992 30.667 -2.5 53.5 -5.5 68.5s-9.5 27.5 -19.5 37.5c-15.333 14 -48 21 -98 21h-45v-547h58c32 0 55.333 3.66699 70 11
c18 9.33301 29.667 27 35 53c4 21.333 6 82 6 182z" />
    <glyph glyph-name="E" unicode="E" horiz-adv-x="396" 
d="M368 0h-318v706h311v-79h-223v-210h195v-80h-195v-258h230v-79z" />
    <glyph glyph-name="F" unicode="F" 
d="M361 627h-222v-208h193v-77h-193v-342h-89v706h311v-79z" />
    <glyph glyph-name="G" unicode="G" horiz-adv-x="437" 
d="M395 0l-73.999 -0.00195312v49c-11.333 -11.333 -20.666 -20 -27.999 -26c-30.667 -22.667 -64.334 -33.667 -101.001 -33c-14.667 0 -29.167 1.66699 -43.5 5s-31 12.833 -50 28.5s-32.5 36.834 -40.5 63.501c-8 25.333 -12.333 76 -13 152
c-0.666992 24.667 -1 62 -1 112s1 100 3 150c0 48 3.66699 84.667 11 110c21.333 70.667 76.666 106 165.999 106c48 0 85.333 -9 112 -27c8.66699 -6 16.334 -13 23.001 -21c11.333 -13.333 19.333 -28 24 -44c4 -14 6 -42.333 6 -85v-50h-83v35c0 4 -0.166992 10 -0.5 18
s-0.5 14 -0.5 18c-0.666992 10 -1.66699 18.5 -3 25.5s-4.33301 15.5 -9 25.5s-12.667 17.667 -24 23s-25.666 8 -42.999 8c-22 0 -40.333 -5 -55 -15c-8 -5.33301 -14 -10.666 -18 -15.999c-4.66699 -6 -8.33398 -15.333 -11.001 -28c-6.66699 -31.333 -10 -98 -10 -200
v-85c0 -39.333 1 -79 3 -119s5.33301 -65.333 10 -76c13.333 -28 37 -42 71 -42c25.333 0 46.666 7.66699 63.999 23c10 8 17.667 18.333 23 31c6.66699 17.333 10 51 10 101v72h-104v76h186v-365z" />
    <glyph glyph-name="H" unicode="H" horiz-adv-x="437" 
d="M387 0h-88v329h-161v-329h-88v706h88v-300h161v300h88v-706z" />
    <glyph glyph-name="I" unicode="I" horiz-adv-x="187" 
d="M137 0h-87v706h87v-706z" />
    <glyph glyph-name="J" unicode="J" horiz-adv-x="396" 
d="M349 231c0 -22 -0.333008 -38.667 -1 -50v-14.5c0 -7.66699 -0.166992 -12.5 -0.5 -14.5s-0.666016 -6.5 -0.999023 -13.5s-0.666016 -11.833 -0.999023 -14.5s-0.833008 -7.16699 -1.5 -13.5s-1.66699 -11 -3 -14s-2.83301 -7.16699 -4.5 -12.5
s-3.5 -9.83301 -5.5 -13.5l-7 -12.5c-2.66699 -4.66699 -5.66699 -9 -9 -13c-30.667 -37.333 -77.334 -56 -140.001 -56c-41.333 0 -75.666 10.667 -102.999 32c-15.333 12.667 -26 25 -32 37c-4 6.66699 -7.33301 14.5 -10 23.5s-4.83398 17 -6.50098 24
s-2.83398 16.667 -3.50098 29s-1 20.833 -1 25.5v29v24h85v-64c0 -20 3 -35.667 9 -47c13.333 -24.667 35.333 -37 66 -37c52 0 79.333 29.667 82 89c0.666992 0 1 12 1 36l-1 36v480h88v-475z" />
    <glyph glyph-name="K" unicode="K" horiz-adv-x="417" 
d="M417 0h-98l-125 361l-57 -85v-276h-87v706h87v-304l182 304h98l-167 -266z" />
    <glyph glyph-name="L" unicode="L" horiz-adv-x="354" 
d="M347 0h-297v706h90v-627h207v-79z" />
    <glyph glyph-name="M" unicode="M" horiz-adv-x="562" 
d="M512 0h-81l12 639l-105 -639h-111l-105 639l14 -639h-86v706h132l99 -630l97 630h134v-706z" />
    <glyph glyph-name="N" unicode="N" horiz-adv-x="437" 
d="M387 0h-124l-138 612l12 -612h-87v706h121l143 -618l-12 618h85v-706z" />
    <glyph glyph-name="O" unicode="O" horiz-adv-x="437" 
d="M394 363c0 -16 -0.666016 -38.5 -1.99902 -67.5s-2 -48.167 -2 -57.5c0 -14 -0.666992 -35 -2 -63c-6 -72.667 -23.667 -122 -53 -148c-28.667 -24.667 -69.334 -37 -122.001 -37c-64.667 0 -110.334 19 -137.001 57c-9.33301 12.667 -16.333 27.667 -21 45
c-7.33301 26 -11 100.333 -11 223c0 42 0.666992 105.667 2 191c2 72 14.667 123 38 153c30.667 38.667 78.334 58 143.001 58c72 0 120.333 -26 145 -78c9.33301 -18.667 15 -39.667 17 -63c5.33301 -44.667 7 -115.667 5 -213zM304.001 363
c0 65.333 -0.331055 114.334 -0.998047 147.001c0 49.333 -4.66699 82 -14 98c-13.333 23.333 -36 35 -68 35c-20.667 0 -38 -5.66699 -52 -17c-15.333 -12.667 -25 -29.834 -29 -51.501s-6 -56.5 -6 -104.5v-49c0 -90.667 0.333008 -158.667 1 -204
c0 -54 2.33301 -88.333 7 -103c11.333 -34.667 36.666 -52 75.999 -52c34 0 57 13.667 69 41c9.33301 20.667 14.666 76 15.999 166c0.666992 20.667 1 52 1 94z" />
    <glyph glyph-name="P" unicode="P" horiz-adv-x="417" 
d="M389 492c0 -75.333 -12.333 -127.997 -37 -157.997c-24 -29.333 -70.667 -44 -140 -44h-74v-290h-88v706h183c54 0 93.667 -15.667 119 -47c4.66699 -5.33301 8.66699 -10.833 12 -16.5s6.33301 -11.834 9 -18.501l7 -17c2 -4.66699 3.5 -11.167 4.5 -19.5
s1.83301 -14.333 2.5 -18s1.16699 -10.334 1.5 -20.001s0.5 -15.834 0.5 -18.501v-20v-19zM303 487.003c0 30 -0.670898 52.668 -2.00391 68.001c-1.33301 13.333 -4.66602 24.666 -9.99902 33.999s-11.166 16.333 -17.499 21s-15.166 8.33398 -26.499 11.001
s-21 4.16699 -29 4.5s-19.333 0.5 -34 0.5h-46v-259h59c14.667 0 24.834 0.166992 30.501 0.5s14 1.5 25 3.5s19.667 6.16699 26 12.5s11.833 14.5 16.5 24.5c5.33301 11.333 8 37.666 8 78.999z" />
    <glyph glyph-name="Q" unicode="Q" horiz-adv-x="437" 
d="M402 -62l-48.999 -50.998l-107 104c-16.667 -1.33301 -35.334 -1.33301 -56.001 0c-82.667 6 -129.334 48.667 -140.001 128c-4 32.667 -6 89.667 -6 171c0 46.667 0.666992 114.667 2 204c1.33301 70.667 10.333 120 27 148c28.667 50 80.334 75 155.001 75
c81.333 0 132 -32.333 152 -97c10.667 -32 16 -96 16 -192c0 -62.667 -1.66699 -133.334 -5 -212.001c-2 -62.667 -7.66699 -106.334 -17 -131.001c-4.66699 -12.667 -10.667 -24 -18 -34c-12 -18.667 -25.667 -31.667 -41 -39zM306.001 363.002
c0.666992 20 0.00292969 78.335 -1.99707 175.002c0 70 -27.667 105 -83 105c-29.333 0 -51.333 -11 -66 -33c-8.66699 -12.667 -14.334 -29.334 -17.001 -50.001c-2.66699 -19.333 -4 -87.333 -4 -204c0 -72 0.333008 -125.667 1 -161
c0 -2.66699 0.166992 -8.83398 0.5 -18.501s0.666016 -17 0.999023 -22s0.833008 -11.5 1.5 -19.5s2 -15 4 -21s4.33301 -11.667 7 -17c13.333 -23.333 36.666 -35 69.999 -35c34.667 0 57.667 12.333 69 37c2 4.66699 3.83301 9.66699 5.5 15s3 11.833 4 19.5
s1.83301 14.334 2.5 20.001s1.16699 14 1.5 25s0.666016 19.667 0.999023 26s0.5 16.666 0.5 30.999v32.5c0.666992 10.667 1.33398 26.5 2.00098 47.5s1 36.833 1 47.5z" />
    <glyph glyph-name="R" unicode="R" horiz-adv-x="437" 
d="M422 0l-92 -0.000976562l-120 310h-73v-310h-87v706h154c61.333 0 105.333 -11 132 -33c36.667 -30 55 -81.667 55 -155c0 -31.333 -2.33301 -60.666 -7 -87.999c-5.33301 -32 -15 -56.667 -29 -74s-33.667 -29.333 -59 -36zM303 503.999
c0 34.667 -2.66797 59.665 -8.00098 74.998c-4 11.333 -9.66699 20.5 -17 27.5s-16.666 11.833 -27.999 14.5s-20.833 4.16699 -28.5 4.5s-18.5 0.5 -32.5 0.5h-9h-43v-247h46c36.667 0 62.334 2.66699 77.001 8c10 4 18.333 10.333 25 19s11.167 19.834 13.5 33.501
s3.66602 24.334 3.99902 32.001s0.5 18.5 0.5 32.5z" />
    <glyph glyph-name="S" unicode="S" horiz-adv-x="396" 
d="M371 160c0 -64.667 -21.332 -111.331 -63.999 -139.998c-29.333 -20 -66 -30 -110 -30c-83.333 0 -136.333 32.333 -159 97c-7.33301 21.333 -11 47.666 -11 78.999v78h83v-35c0 -46.667 2.66699 -77.667 8 -93c12.667 -34 39 -51 79 -51s67 15.333 81 46
c5.33301 11.333 8 25.333 8 42c0 18.667 -3.33301 35.834 -10 51.501s-13.334 27.334 -20.001 35.001s-18.667 20.5 -36 38.5l-95 98c-30 31.333 -51 59 -63 83s-18 55.333 -18 94c0 25.333 2.66699 47.666 8 66.999c20 64.667 72 97 156 97c79.333 0 127 -30.667 143 -92
c4 -16 6 -43.333 6 -82v-45h-78c-0.666992 29.333 -1 48.666 -1 57.999c0 40.667 -12.667 67 -38 79c-10.667 4.66699 -23 7 -37 7c-22.667 0 -40.334 -6.33301 -53.001 -19c-2 -2 -6.66699 -8.33301 -14 -19c-4.66699 -10.667 -7 -26.334 -7 -47.001c0 -16 2 -29.667 6 -41
c2.66699 -8 6.83398 -16.333 12.501 -25s10.167 -15 13.5 -19s10.333 -11.667 21 -23s16.334 -17.333 17.001 -18l111 -118c5.33301 -6 12.666 -15 21.999 -27c26 -33.333 39 -75.333 39 -126z" />
    <glyph glyph-name="T" unicode="T" 
d="M365 627h-134v-627h-87v627h-134v79h355v-79z" />
    <glyph glyph-name="U" unicode="U" horiz-adv-x="437" 
d="M390 179c0 -41.333 -4.33203 -75.499 -12.999 -102.499s-28 -48.5 -58 -64.5c-26.667 -14.667 -60.667 -22 -102 -22c-58 0 -101 13.667 -129 41c-12 12 -21.667 28 -29 48c-8 23.333 -12 55.666 -12 96.999v530h89v-468c0 -72 2.66699 -114.667 8 -128
c7.33301 -19.333 21.333 -32.333 42 -39c10 -3.33301 21.667 -5 35 -5c29.333 0 50.666 8.66699 63.999 26c6 8 10 16.333 12 25c2.66699 12.667 4 41.667 4 87v502h89v-527z" />
    <glyph glyph-name="V" unicode="V" 
d="M375 706l-131 -706h-112l-132 706h90l98 -619l98 619h89z" />
    <glyph glyph-name="W" unicode="W" horiz-adv-x="625" 
d="M625 706l-119 -706h-116l-77 585l-80 -585h-118l-115 706h87l87 -619l83 619h113l81 -619l88 619h86z" />
    <glyph glyph-name="X" unicode="X" horiz-adv-x="396" 
d="M396 0h-95l-108 306l-101 -306h-92l135 385l-126 321h97l85 -271l79 271h94l-116 -321z" />
    <glyph glyph-name="Y" unicode="Y" horiz-adv-x="396" 
d="M396 706l-155 -420v-286h-91v286l-150 420h93l105 -353l105 353h93z" />
    <glyph glyph-name="Z" unicode="Z" 
d="M353 0h-331v72l232 555h-199v79h298v-67l-236 -561h236v-78z" />
    <glyph glyph-name="bracketleft" unicode="[" horiz-adv-x="313" 
d="M293 -171h-196v889h196v-63h-112v-762h112v-64z" />
    <glyph glyph-name="backslash" unicode="\" horiz-adv-x="292" 
d="M286 0h-83l-198 706h81z" />
    <glyph glyph-name="bracketright" unicode="]" horiz-adv-x="313" 
d="M216 -171h-197v64h113v762h-113v63h197v-889z" />
    <glyph glyph-name="asciicircum" unicode="^" horiz-adv-x="559" 
d="M496 358h-89l-128 271l-127 -271h-90l177 348h80z" />
    <glyph glyph-name="underscore" unicode="_" horiz-adv-x="500" 
d="M510 -206h-520v59h520v-59z" />
    <glyph glyph-name="grave" unicode="`" horiz-adv-x="229" 
d="M196 564h-64l-99 107h109z" />
    <glyph glyph-name="a" unicode="a" horiz-adv-x="354" 
d="M333 0h-98v60c-22 -46 -56.667 -69 -104 -69c-22 0 -42 5.33301 -60 16c-34.667 20.667 -52 58.667 -52 114c0 44 13.333 79.333 40 106c6.66699 7.33301 14 13.833 22 19.5l35 24l41 27.5c22.667 16 47 36 73 60v17c0 46.667 -20.333 70 -61 70
c-12 0 -22.167 -2.16699 -30.5 -6.5s-14.333 -8.33301 -18 -12s-6.5 -10.167 -8.5 -19.5s-3 -15 -3 -17v-16c0 -8 0.666992 -20.667 2 -38h-73c0 19.333 0.333008 33.666 1 42.999c0.666992 15.333 1.16699 26.5 1.5 33.5s2.5 15.667 6.5 26s9.66699 19.833 17 28.5
c24 28 61.667 42 113 42c44 0 77.667 -12 101 -36c10 -10.667 18.333 -24.667 25 -42c4 -13.333 6 -41.666 6 -84.999v-240c0 -47.333 3 -77 9 -89c1.33301 -3.33301 6.33301 -9 15 -17zM230 162v123.001c-6.66699 -6.66699 -16 -15.334 -28 -26.001
c-10.667 -8 -19 -14 -25 -18c-27.333 -20.667 -44.666 -35.334 -51.999 -44.001c-16 -20.667 -24 -45 -24 -73c0 -50 18.333 -74.667 55 -74c21.333 0 39.666 9.66699 54.999 29c12.667 16.667 19 44.334 19 83.001z" />
    <glyph glyph-name="b" unicode="b" 
d="M339 298c0 -66 -0.665039 -115.667 -1.99805 -149c-2.66699 -48 -8 -80.333 -16 -97c-6.66699 -14.667 -18.334 -28.5 -35.001 -41.5s-38.667 -19.5 -66 -19.5c-18 0 -34.833 4 -50.5 12s-25.834 14.333 -30.501 19s-11.334 12 -20.001 22v-44h-75v706h79v-246
c0.666992 0.666992 1.66699 1.83398 3 3.50098l3.5 4.5c1 1.33301 2.66699 3 5 5s4.5 4 6.5 6c22 20 48.667 30 80 30c28 0 50.333 -6.5 67 -19.5s28.334 -27.167 35.001 -42.5c10.667 -24.667 16 -74.334 16 -149.001zM258.002 240c0 37.333 -0.333008 65.3281 -1 83.9951
c-2 38.667 -3 58.334 -3 59.001v5c-0.666992 2.66699 -1.16699 4.83398 -1.5 6.50098s-1 4.33398 -2 8.00098s-2 6.83398 -3 9.50098s-2.33301 5.83398 -4 9.50098s-3.5 6.66699 -5.5 9s-4.5 5 -7.5 8s-6.16699 5.33301 -9.5 7s-7.33301 3 -12 4s-9.66699 1.5 -15 1.5
c-10 0 -21.167 -3.16699 -33.5 -9.5s-21.833 -17.166 -28.5 -32.499c-2 -4 -3.5 -8.33301 -4.5 -13l-2.5 -11.5c-0.666992 -3 -1.16699 -8.16699 -1.5 -15.5s-0.5 -12.5 -0.5 -15.5v-21v-23.5v-114c0 -56.667 3.66699 -92 11 -106c6 -10.667 15.167 -19.334 27.5 -26.001
s24.5 -10 36.5 -10c29.333 0 47.333 15.667 54 47c4 19.333 6 66 6 140z" />
    <glyph glyph-name="c" unicode="c" horiz-adv-x="354" 
d="M320 186c0 -43.333 -2 -75.835 -6 -97.502s-12.667 -40.167 -26 -55.5c-24 -28 -62 -42 -114 -42c-62 0 -102 20.333 -120 61c-12 25.333 -18 84 -18 176c0 51.333 1.33301 97.333 4 138c6.66699 54.667 19.667 91.334 39 110.001c22 22 56 33 102 33
c58 0 97 -16.667 117 -50c10 -16 16.167 -33 18.5 -51s3.5 -47.667 3.5 -89h-76c0 28.667 -0.666992 50.334 -2 65.001c0 17.333 -3.33301 31 -10 41c-10 16 -27 24 -51 24c-33.333 0 -53 -17 -59 -51c-4 -24 -6 -73.667 -6 -149c0 -23.333 0.666992 -58.333 2 -105
c0 -29.333 3 -49.666 9 -60.999c10 -19.333 27.667 -29 53 -29c35.333 0 55.333 19.667 60 59c2.66699 21.333 4 45.666 4 72.999h76z" />
    <glyph glyph-name="d" unicode="d" 
d="M331 0h-75.001v52c-3.33301 -5.33301 -9 -13 -17 -23c-22.667 -25.333 -52 -38 -88 -38c-61.333 0 -97.333 34 -108 102c-4.66699 32.667 -7 83.667 -7 153c0 24 0.666992 60 2 108c2 37.333 7 66 15 86c9.33301 21.333 23 38.333 41 51s38.333 18.667 61 18
c29.333 0 54.333 -8.66699 75 -26c4.66699 -4 11.334 -11.333 20.001 -22v245h81v-706zM251.999 249c0 42.667 -0.666016 74.6699 -1.99902 96.0029c-1.33301 35.333 -7 60.666 -17 75.999c-11.333 17.333 -28.333 26 -51 26c-11.333 0 -22 -3 -32 -9
c-4 -2.66699 -7.66699 -5.83398 -11 -9.50098s-6.16602 -7.16699 -8.49902 -10.5s-4.33301 -8 -6 -14s-2.83398 -10.667 -3.50098 -14s-1.33398 -8.66602 -2.00098 -15.999s-1 -12 -1 -14s-0.166992 -6.83301 -0.5 -14.5s-0.5 -11.834 -0.5 -12.501
c-0.666992 -15.333 -1 -38.333 -1 -69c0 -64 0.333008 -102.333 1 -115c0.666992 -26.667 3.33398 -45.667 8.00098 -57c11.333 -25.333 30.333 -38 57 -38c10.667 0 18 1 22 3c18 5.33301 30.667 20.666 38 45.999c5.33301 21.333 8.66602 70 9.99902 146z" />
    <glyph glyph-name="e" unicode="e" horiz-adv-x="354" 
d="M318 155c0.666992 -18 0.669922 -32.333 0.00292969 -43s-3.33398 -23.167 -8.00098 -37.5s-11.667 -27.166 -21 -38.499c-24.667 -30 -61.334 -45 -110.001 -45c-60.667 0 -102.334 22.333 -125.001 67c-3.33301 6 -6 12.333 -8 19s-3.5 12.334 -4.5 17.001
s-1.83301 12 -2.5 22l-1.5 22c-0.333008 4.66699 -0.5 14.667 -0.5 30v34c-0.666992 20.667 -1 51.667 -1 93c0 31.333 1.33301 60 4 86c3.33301 27.333 8.33301 48.166 15 62.499s16 26.5 28 36.5c22.667 18.667 53.334 28 92.001 28c41.333 0 73.333 -9 96 -27
c12.667 -9.33301 22.667 -21 30 -35c3.33301 -6 6.16602 -13.167 8.49902 -21.5s4 -15.333 5 -21s1.83301 -14.334 2.5 -26.001s1 -19.167 1 -22.5v-25v-21v-74h-201c-1.33301 -29.333 -1.33301 -58.666 0 -87.999c0.666992 -22.667 2.33398 -38.334 5.00098 -47.001
c8.66699 -29.333 28.667 -44 60 -44c15.333 0 27.666 3.66699 36.999 11c16.667 12.667 24.667 42 24 88h75zM243.003 299l0.000976562 21.001c0 26 -0.333008 45.333 -1 58c-2.66699 46 -23.334 69 -62.001 69c-25.333 0 -43 -10.667 -53 -32
c-6.66699 -14.667 -10 -46.334 -10 -95.001v-21h126z" />
    <glyph glyph-name="f" unicode="f" horiz-adv-x="229" 
d="M224 440h-80.999v-440h-79v440h-59v60h59v54c0 54.667 6.66699 92 20 112c18 28.667 50.667 43 98 43c17.333 0 31.333 -2 42 -6v-69c-14 4 -24.667 6 -32 6c-12.667 0 -23 -3.33301 -31 -10c-8.66699 -7.33301 -13.834 -16 -15.501 -26s-2.5 -28 -2.5 -54v-50h81v-60z
" />
    <glyph glyph-name="g" unicode="g" 
d="M331 -29c-1.33301 -56 -20.6641 -94.665 -57.9971 -115.998c-26.667 -15.333 -59 -23 -97 -23c-40 0 -72.333 10.667 -97 32c-13.333 11.333 -23 24 -29 38c-6.66699 16 -10 35.333 -10 58h74c0 -14.667 2 -26.334 6 -35.001c3.33301 -7.33301 10.333 -14 21 -20
s23.667 -9 39 -9c18 0 32.667 3.66699 44 11c3.33301 2 6.33301 4.33301 9 7s4.83398 5.66699 6.50098 9l4.5 9c1.33301 2.66699 2.5 6.16699 3.5 10.5s1.66699 7.66602 2 9.99902s0.666016 6 0.999023 11s0.5 8.33301 0.5 10v11v9.5v58l-9 -12
c-22.667 -28.667 -53.334 -43 -92.001 -43c-39.333 0 -69 14.667 -89 44c-16.667 24 -25 69.333 -25 136c0 11.333 -0.166992 28 -0.5 50s-0.5 38.333 -0.5 49c0 24 0.333008 42 1 54c1.33301 60.667 9.66602 103.667 24.999 129c19.333 33.333 52.333 50 99 50
c41.333 0 73.666 -17.667 96.999 -53v44h74v-475v-54zM253.002 216.002v27.999c0 50 -0.666992 82.333 -2 97c0.666992 29.333 -1.66602 51.333 -6.99902 66c-10 30.667 -30.667 46 -62 46c-10.667 0 -22 -3.66699 -34 -11c-13.333 -10 -21.833 -25.833 -25.5 -47.5
s-5.5 -53.5 -5.5 -95.5v-78c0 -41.333 0.666992 -72.666 2 -93.999c3.33301 -28 11.333 -47 24 -57c12 -8 24.667 -12 38 -12c29.333 0 49.666 13.333 60.999 40c7.33301 16 11 55.333 11 118z" />
    <glyph glyph-name="h" unicode="h" 
d="M331 0h-78.999v301c0 32 -0.333008 56 -1 72c-2 28 -8.66699 47.333 -20 58c-10 10 -23.667 15 -41 15c-18 0 -32.667 -5.66699 -44 -17c-7.33301 -8 -12.833 -18.833 -16.5 -32.5s-5.66699 -26 -6 -37s-0.5 -30.833 -0.5 -59.5v-300h-79v706h79v-251
c22.667 28 44.667 44.667 66 50c8 2.66699 19.667 4 35 4c23.333 0 43.666 -6 60.999 -18c14.667 -10 25.667 -24.667 33 -44s11.333 -35 12 -47s1 -30.667 1 -56v-344z" />
    <glyph glyph-name="i" unicode="i" horiz-adv-x="167" 
d="M123 588h-79v103h79v-103zM123 0h-79v500h79v-500z" />
    <glyph glyph-name="j" unicode="j" horiz-adv-x="167" 
d="M123 587h-79v104h79v-104zM123 34c0 -35.333 -0.336914 -61.999 -1.00391 -79.999c0 -17.333 -2 -33.666 -6 -48.999c-6.66699 -24.667 -19.667 -43 -39 -55s-49.666 -18 -90.999 -18c-4 0 -9.66699 0.166992 -17 0.5s-12.666 0.5 -15.999 0.5l1 66
c0.666992 0 5.83398 -0.166992 15.501 -0.5s16.834 -0.333008 21.501 0s10.5 1.16602 17.5 2.49902s12.833 3.66602 17.5 6.99902c8 4.66699 13.333 15 16 31c1.33301 13.333 2 43.333 2 90v471h79v-466z" />
    <glyph glyph-name="k" unicode="k" horiz-adv-x="354" 
d="M363 500l-135 -194l128 -306h-85l-97 232l-51 -70v-162h-79v706h79v-433l148 227h92z" />
    <glyph glyph-name="l" unicode="l" horiz-adv-x="167" 
d="M124 0h-81v706h81v-706z" />
    <glyph glyph-name="m" unicode="m" horiz-adv-x="583" 
d="M540 0l-82 -0.000976562v328c0 44.667 -2.66699 73 -8 85c-10 22.667 -28 34 -54 34c-17.333 0 -30.666 -4.66699 -39.999 -14c-4 -3.33301 -7.33301 -7.16602 -10 -11.499s-5 -9.33301 -7 -15s-3.5 -10.667 -4.5 -15s-1.66699 -10 -2 -17s-0.5 -12.167 -0.5 -15.5v-17
v-14v-328h-81v328c0 50 -3.33301 80.667 -10 92c-12.667 20 -30.334 29 -53.001 27c-18 0 -32.333 -5.33301 -43 -16c-9.33301 -10 -15.166 -22.333 -17.499 -37s-3.5 -37.334 -3.5 -68.001v-326h-80v500h75v-49c8 10.667 15.333 19.334 22 26.001
c23.333 21.333 51.666 32 84.999 32c37.333 0 66 -13 86 -39c0.666992 -0.666992 5 -7 13 -19c2.66699 5.33301 9.66699 13.666 21 24.999c22 22 49.333 33 82 33c24.667 0 45.667 -6 63 -18c20 -14 33.167 -31.167 39.5 -51.5s9.5 -45.166 9.5 -74.499v-365z" />
    <glyph glyph-name="n" unicode="n" 
d="M331 0l-80.999 -0.000976562v366c0 53.333 -19.667 80 -59 80c-29.333 0 -49.333 -14 -60 -42c-4.66699 -11.333 -7 -38.333 -7 -81v-323h-80v500h76v-46c0.666992 0.666992 3 3.5 7 8.5s7.33301 8.83301 10 11.5c27.333 23.333 57.666 35 90.999 35
c40 0 68.667 -14.333 86 -43c7.33301 -12 12 -25.667 14 -41s3 -39.666 3 -72.999v-352z" />
    <glyph glyph-name="o" unicode="o" horiz-adv-x="354" 
d="M318 245c0 -42.667 -0.666016 -74.668 -1.99902 -96.001c-0.666992 -24.667 -2.33398 -43.334 -5.00098 -56.001c-11.333 -68 -56.666 -102 -135.999 -102c-56.667 0 -96 18.333 -118 55c-14 24.667 -21 63 -21 115v65c0 58 0.666992 101.333 2 130
c1.33301 54.667 13.333 93.667 36 117c21.333 24 57 36 107 36c25.333 0 47.166 -4.33301 65.499 -13s32 -18.167 41 -28.5s16 -24.166 21 -41.499s7.83301 -30.166 8.5 -38.499s1 -19.166 1 -32.499c0.666992 -36.667 0.666992 -73.334 0 -110.001zM235.001 245.999
c0 48.667 -0.332031 85.333 -0.999023 110c-0.666992 12.667 -1.33398 22.667 -2.00098 30s-2.66699 16.333 -6 27s-8.83301 18.5 -16.5 23.5s-17.5 7.5 -29.5 7.5c-29.333 0 -47.666 -15.667 -54.999 -47c-3.33301 -14 -5 -55.333 -5 -124
c0 -13.333 0.166992 -33.5 0.5 -60.5s0.5 -47.167 0.5 -60.5c0 -32 1.66699 -53 5 -63c7.33301 -23.333 23.666 -35 48.999 -35c30 0 48.333 17.333 55 52c3.33301 19.333 5 66 5 140z" />
    <glyph glyph-name="p" unicode="p" 
d="M339 288c0 -46 -0.999023 -92.001 -2.99902 -138.001c-2 -48.667 -8 -83 -18 -103c-20.667 -37.333 -53.334 -56 -98.001 -56c-30.667 0 -56 9.66699 -76 29c-8 8 -14 15.333 -18 22v-201h-82v659h79l1 -48c27.333 38 61 57 101 57c26 0 48.333 -7.33301 67 -22
c24 -19.333 38.333 -47.333 43 -84c2.66699 -21.333 4 -59.666 4 -114.999zM256.001 260.999c0 36 -0.332031 63.001 -0.999023 81.001c0 12 -0.333008 21 -1 27c-2.66699 50.667 -22.667 76 -60 76c-30.667 0 -50.667 -18.333 -60 -55
c-4.66699 -16.667 -7 -63.334 -7 -140.001c0 -44.667 0.666992 -78 2 -100c0 -27.333 4.66699 -49.333 14 -66c11.333 -22 29 -33 53 -33c26.667 0 43.667 13.667 51 41c3.33301 12.667 5.66602 44.667 6.99902 96c1.33301 32 2 56.333 2 73z" />
    <glyph glyph-name="q" unicode="q" 
d="M331 -159l-79.002 -0.00195312v209c-5.33301 -9.33301 -10.666 -16.666 -15.999 -21.999c-21.333 -24.667 -49.333 -37 -84 -37c-26 0 -48.333 7.66699 -67 23c-15.333 12.667 -26.666 29.167 -33.999 49.5s-11.333 36.333 -12 48s-1.33398 31.834 -2.00098 60.501
c-0.666992 18 -1 44.333 -1 79c0 11.333 0.166992 28.5 0.5 51.5s0.5 40.5 0.5 52.5c1.33301 48 10 83.333 26 106c23.333 32 54.333 48 93 48c19.333 0 36.5 -4.5 51.5 -13.5s24.833 -16.667 29.5 -23s10.334 -14.833 17.001 -25.5v53h77v-659zM252.998 252.998
c0 8.66699 -0.166016 17.998 -0.499023 27.998s-0.833008 21 -1.5 33s-1 21.333 -1 28c-2 33.333 -4.66699 54.333 -8 63c-10.667 27.333 -31.334 40.666 -62.001 39.999c-32.667 0 -52 -18.667 -58 -56c-2 -15.333 -3 -63.666 -3 -144.999c0 -32 0.333008 -56 1 -72
c0 -3.33301 0.166992 -10.666 0.5 -21.999s0.833008 -20.333 1.5 -27c4 -46 23.667 -69 59 -69c23.333 0 41.666 10 54.999 30c4.66699 6.66699 8.33398 17.334 11.001 32.001c5.33301 27.333 7.33301 73 6 137z" />
    <glyph glyph-name="r" unicode="r" horiz-adv-x="250" 
d="M256 425c-25.333 0 -44.333 -1.66797 -57 -5.00098c-10 -2.66699 -19 -6.66699 -27 -12s-14.5 -10.666 -19.5 -15.999s-9.33301 -13 -13 -23s-6.33398 -18 -8.00098 -24s-3 -15.167 -4 -27.5s-1.5 -21 -1.5 -26v-28v-24.5v-239h-82v500h77v-94
c8.66699 19.333 16.334 34.333 23.001 45c26 38.667 59 58 99 58h13v-84z" />
    <glyph glyph-name="s" unicode="s" horiz-adv-x="313" 
d="M295 128c0 -66.667 -28.3389 -109.666 -85.0059 -128.999c-16.667 -5.33301 -36.334 -8 -59.001 -8c-51.333 0 -87.666 15.333 -108.999 46c-10 14 -16.5 30.333 -19.5 49s-4.83301 47.667 -5.5 87h77c0 -10.667 0.666992 -27.334 2 -50.001
c0 -16.667 2.33301 -29.334 7 -38.001c10.667 -19.333 28.334 -29 53.001 -29c17.333 0 31.333 5.66699 42 17s16 25.666 16 42.999c0 14 -2.66699 26.5 -8 37.5s-10.666 19.333 -15.999 25s-14.666 14.167 -27.999 25.5l-62 54c-24.667 22 -42.334 41.333 -53.001 58
s-16 38.334 -16 65.001c0 36.667 8.66699 66 26 88c8.66699 11.333 23 21.333 43 30c18.667 6.66699 38.334 10 59.001 10c42 0 73.333 -10.333 94 -31c9.33301 -10 16 -21.333 20 -34c6.66699 -18 10 -48.333 10 -91h-71c0 28.667 -1.33301 47.334 -4 56.001
c-7.33301 24 -23.666 36 -48.999 36c-13.333 0 -25.5 -3.83301 -36.5 -11.5s-16.5 -22.167 -16.5 -43.5c0 -9.33301 2 -18 6 -26c6.66699 -14 25.334 -34 56.001 -60l57 -47c0.666992 -0.666992 4.83398 -4.33398 12.501 -11.001s13.167 -11.667 16.5 -15
c27.333 -29.333 41 -63.666 41 -102.999z" />
    <glyph glyph-name="t" unicode="t" horiz-adv-x="229" 
d="M222 63l-0.999023 -65c-14 -4.66699 -29 -7 -45 -7c-39.333 0 -67.666 8.33301 -84.999 25c-8.66699 8 -15 19.667 -19 35s-6.16699 27 -6.5 35s-0.5 21.333 -0.5 40c0 4 0.166992 10.167 0.5 18.5s0.5 14.5 0.5 18.5v277h-60v60h62v134h80v-134h74v-60h-74v-323
c0 -18.667 3 -32.667 9 -42c7.33301 -10.667 19.666 -16 36.999 -16c9.33301 0 18.666 1.33301 27.999 4z" />
    <glyph glyph-name="u" unicode="u" 
d="M331 0l-76.9971 -0.000976562l-1 46c-28.667 -36.667 -64 -55 -106 -55c-25.333 0 -47 7.33301 -65 22c-12.667 10.667 -21.834 25 -27.501 43s-8.83398 34 -9.50098 48s-1 41.333 -1 82v314h80v-328c0 -18.667 0.333008 -32.667 1 -42c0 -20.667 2.33301 -36 7 -46
c9.33301 -22 26.666 -33 51.999 -33c15.333 0 28.333 4.33301 39 13c12 9.33301 19.833 21.833 23.5 37.5s5.5 39.834 5.5 72.501v326h79v-500z" />
    <glyph glyph-name="v" unicode="v" horiz-adv-x="313" 
d="M313 500l-115 -500h-91l-107 500h87l66 -410l73 410h87z" />
    <glyph glyph-name="w" unicode="w" horiz-adv-x="521" 
d="M521 500l-98 -500h-96l-68 421l-69 -421h-98l-92 500h87l53 -428l65 428h108l65 -422l59 422h84z" />
    <glyph glyph-name="x" unicode="x" horiz-adv-x="333" 
d="M333 0h-91l-79 198l-75 -198h-88l120 268l-104 232h93l54 -164l60 164h90l-105 -232z" />
    <glyph glyph-name="y" unicode="y" horiz-adv-x="333" 
d="M320 500l-85.999 -435.999c-1.33301 -6 -3.16602 -15 -5.49902 -27s-4.16602 -21 -5.49902 -27c-4.66699 -23.333 -8.33398 -40.833 -11.001 -52.5s-8 -26.834 -16 -45.501s-17.667 -33.667 -29 -45c-20.667 -20 -52.334 -30 -95.001 -30h-52v69
c18 -0.666992 35.667 -0.666992 53 0c9.33301 1.33301 17.166 2.83301 23.499 4.5s13.333 7 21 16s11.5 21.5 11.5 37.5c0 12.667 -3.33301 33 -10 61l-113 475h86l79 -402l64 402h85z" />
    <glyph glyph-name="z" unicode="z" horiz-adv-x="292" 
d="M281 0h-272v66l188 366h-163v68h247v-68l-187 -366h187v-66z" />
    <glyph glyph-name="braceleft" unicode="{" horiz-adv-x="354" 
d="M327 -171l-4.99609 -0.00292969c-34 0 -59 2 -75 6c-24 5.33301 -43.5 13.833 -58.5 25.5s-26 26.334 -33 44.001s-11.5 35 -13.5 52s-3 38.167 -3 63.5v74c0 18.667 -0.166992 32.5 -0.5 41.5s-1.83301 21.167 -4.5 36.5s-6.83398 26.666 -12.501 33.999
s-14 14.333 -25 21s-24.833 10.667 -41.5 12v69c19.333 0 34.666 4 45.999 12c9.33301 6 16.833 13.5 22.5 22.5s9.5 20.667 11.5 35s3.16699 24.833 3.5 31.5s0.5 18.334 0.5 35.001v89c0 48.667 6.5 87.334 19.5 116.001s39.833 49 80.5 61c18.667 5.33301 48 8 88 8v-67
l-12 -1c-39.333 -3.33301 -64 -15 -74 -35s-15 -52.667 -15 -98v-36v-25.5v-29.5c0 -4 -0.333008 -13 -1 -27s-1.83398 -23.667 -3.50098 -29s-3.83398 -13.666 -6.50098 -24.999s-6.16699 -19.666 -10.5 -24.999l-15.5 -19c-6 -7.33301 -13.167 -13 -21.5 -17
s-17.5 -7 -27.5 -9v-4c12 -2 22.5 -5.83301 31.5 -11.5s16.5 -11.334 22.5 -17.001s11.167 -14.167 15.5 -25.5l10 -26.5c2.33301 -6.33301 4 -17.166 5 -32.499s1.5 -25.5 1.5 -30.5v-33v-28.5v-49c0 -40 5.66699 -69.333 17 -88s35.333 -29.334 72 -32.001l12 -1v-67z" />
    <glyph glyph-name="bar" unicode="|" horiz-adv-x="229" 
d="M155 -250h-81v998h81v-998z" />
    <glyph glyph-name="braceright" unicode="}" horiz-adv-x="354" 
d="M327 239c-16 0 -29.5 -3.00195 -40.5 -9.00195s-19.167 -13 -24.5 -21s-9.5 -19 -12.5 -33s-4.83301 -25.833 -5.5 -35.5s-1 -22.5 -1 -38.5v-79c0 -21.333 -0.333008 -38.166 -1 -50.499s-2.83398 -26.833 -6.50098 -43.5s-8.83398 -30.167 -15.501 -40.5
s-16.5 -20.166 -29.5 -29.499s-28.833 -16.666 -47.5 -21.999c-14 -4 -43.333 -6.66699 -88 -8v67l12 1c38.667 3.33301 63 15 73 35s15 52.333 15 97c0 22.667 0.666992 56 2 100c0.666992 19.333 2 35.166 4 47.499s5.66699 26 11 41s13.833 26.833 25.5 35.5
s26.167 14.667 43.5 18v4c-2.66699 1.33301 -7.66699 3.16602 -15 5.49902s-12.666 4.5 -15.999 6.5c-7.33301 4 -14 9.5 -20 16.5s-11 13.5 -15 19.5s-7.33301 14.5 -10 25.5s-4.66699 19.5 -6 25.5s-2.33301 15.667 -3 29s-1 22.166 -1 26.499v28v23.5v49
c0 40 -5.66699 69.333 -17 88s-35 29.334 -71 32.001l-12 1v67c26.667 -0.666992 48 -2 64 -4s33 -6.5 51 -13.5s32.5 -18.167 43.5 -33.5s19.167 -35.333 24.5 -60c2 -10 3.5 -22.333 4.5 -37s1.5 -27.667 1.5 -39s-0.166992 -25.666 -0.5 -42.999s-0.5 -29 -0.5 -35
c0 -18.667 0.166992 -32.167 0.5 -40.5s1.83301 -20.5 4.5 -36.5s7.83398 -29 15.501 -39s17.5 -17.667 29.5 -23c6 -2.66699 17.333 -4.66699 34 -6v-69z" />
    <glyph glyph-name="asciitilde" unicode="~" horiz-adv-x="565" 
d="M501 301c-20 -23.333 -39.001 -40.333 -57.001 -51c-22 -13.333 -44.333 -20 -67 -20s-53 8.66699 -91 26l-26 12c-31.333 14.667 -56.666 22 -75.999 22c-25.333 0 -50.666 -14.667 -75.999 -44l-7 -8l-37 61c17.333 19.333 31.666 34 42.999 44c22 18 48 27 78 27
c22.667 0 48.667 -6.66699 78 -20l54 -24c24.667 -11.333 44.667 -17 60 -17c26 0 54.667 17.333 86 52z" />
    <glyph glyph-name="exclamdown" unicode="&#xa1;" horiz-adv-x="208" 
d="M126 589h-85v117h85v-117zM126 0h-85v223l21 291h45l19 -291v-223z" />
    <glyph glyph-name="cent" unicode="&#xa2;" horiz-adv-x="354" 
d="M315 183c0 -45.333 -2.83398 -80.5 -8.50098 -105.5s-17.834 -44.833 -36.501 -59.5c-6.66699 -5.33301 -15.5 -10.333 -26.5 -15s-19.833 -7.83398 -26.5 -9.50098s-10.667 -2.5 -12 -2.5v-73h-54v73c-62 6.66699 -98.667 39.334 -110 98.001
c-2.66699 12 -4.33398 32.333 -5.00098 61c-0.666992 14.667 -1 34 -1 58c0 15.333 0.5 35.333 1.5 60s1.5 40.334 1.5 47.001c2 44 3 67.333 3 70c0 10 2.33301 23 7 39c7.33301 25.333 20.333 45.333 39 60c14 11.333 35.333 19.666 64 24.999v65h54v-65
c34.667 -4.66699 61.334 -18.334 80.001 -41.001c3.33301 -4 6.5 -8.5 9.5 -13.5s5.5 -10.667 7.5 -17s3.83301 -11.666 5.5 -15.999s2.83398 -10.5 3.50098 -18.5s1.33398 -13.667 2.00098 -17s1.16699 -9.5 1.5 -18.5s0.5 -14.333 0.5 -16v-16.5v-14h-75v16
c0 19.333 -0.666992 35 -2 47c-2.66699 44.667 -23 66.667 -61 66c-32.667 0 -51.667 -19.667 -57 -59c-3.33301 -23.333 -5 -86.666 -5 -189.999c0 -60.667 1.33301 -95.334 4 -104.001c4 -14 10.333 -24.667 19 -32c10 -8.66699 22.333 -13 37 -13c42.667 0 64 30 64 90
c0 4 0.166992 9.33301 0.5 16s0.5 11.667 0.5 15v10h75z" />
    <glyph glyph-name="sterling" unicode="&#xa3;" horiz-adv-x="458" 
d="M435 233c1.33301 -37.333 0.99707 -70.667 -1.00293 -100c-2.66699 -38 -9.66699 -67 -21 -87c-20.667 -37.333 -54 -56 -100 -56c-35.333 0 -73.666 16 -114.999 48l-5.5 -5.5c-2.33301 -2.33301 -4.33301 -4.5 -6 -6.5s-3.5 -3.66699 -5.5 -5
c-23.333 -19.333 -50 -29 -80 -29c-15.333 0 -28 2.33301 -38 7c-15.333 6.66699 -27.833 17.167 -37.5 31.5s-14.5 30.166 -14.5 47.499c0 9.33301 1.66699 19 5 29c13.333 36.667 41 55 83 55c22 0 44.333 -8 67 -24c4.66699 44.667 -4 100.334 -26 167.001h-99v75h74
c-10 28 -16.667 47.5 -20 58.5s-6.66602 26 -9.99902 45s-5 39.833 -5 62.5c0 64.667 17.667 110.667 53 138c28 22 68.667 33 122 33c60.667 0 103.334 -19.333 128.001 -58c18 -28 27 -77 27 -147c0 -10.667 -0.333008 -19 -1 -25h-87c0 60.667 -2.66699 98.667 -8 114
c-4.66699 14.667 -12.667 26 -24 34c-10 6.66699 -24 10 -42 10c-27.333 0 -47.333 -9.33301 -60 -28s-19 -42 -19 -70c0 -37.333 7.66699 -79 23 -125c5.33301 -14.667 11.333 -28.667 18 -42h134v-75h-112c14.667 -58.667 21.667 -101.667 21 -129
c0 -26 -4.66699 -52.333 -14 -79c0.666992 -0.666992 2.66699 -2.16699 6 -4.5s6 -3.83301 8 -4.5c18 -11.333 35.333 -17 52 -17c20 0 33.667 8.33301 41 25c7.33301 14 11 39.667 11 77c0 20 -1 40 -3 60h81zM139.997 87.999c-16 10.667 -29.333 16 -40 16
c-17.333 0 -26 -6.66699 -26 -20c2 -14 10 -21 24 -21c18 0 32 8.33301 42 25z" />
    <glyph glyph-name="currency" unicode="&#xa4;" horiz-adv-x="627" 
d="M586 569l-70.999 -74.999c32 -52 48 -103 48 -153c0 -56.667 -16.333 -109.334 -49 -158.001l71 -76l-53 -55l-72 76c-48 -34.667 -97.667 -52 -149 -52c-27.333 0 -51.333 3.66699 -72 11s-45.334 21 -74.001 41l-72 -74l-52 55l72 74
c-18.667 29.333 -31.5 55.5 -38.5 78.5s-10.5 49.167 -10.5 78.5c0 54 16.333 105.667 49 155l-70 74l52 55l70 -73c48 34 97.667 51 149 51c52.667 0 101.667 -17 147 -51l72 74zM481.001 338.001c0 54 -15.835 98.834 -47.502 134.501s-71.5 53.5 -119.5 53.5
s-88.167 -17.833 -120.5 -53.5s-48.5 -79.834 -48.5 -132.501c0 -53.333 16.333 -97.833 49 -133.5s73.334 -53.5 122.001 -53.5c46.667 0 85.834 17.833 117.501 53.5s47.5 79.5 47.5 131.5z" />
    <glyph glyph-name="yen" unicode="&#xa5;" horiz-adv-x="396" 
d="M396 706l-124 -347h87v-58h-108l-10 -27v-27h118v-57h-118v-190h-88v190h-117v57h117v27l-9 27h-108v58h86l-122 347h95l103 -358l104 358h94z" />
    <glyph glyph-name="brokenbar" unicode="&#xa6;" horiz-adv-x="229" 
d="M155 308h-81v441h81v-441zM155 -249h-81v439h81v-439z" />
    <glyph glyph-name="section" unicode="&#xa7;" horiz-adv-x="417" 
d="M389 316c0 -26.667 -5.16504 -49.668 -15.498 -69.001s-26.5 -41.666 -48.5 -66.999c16.667 -19.333 28.167 -37.333 34.5 -54s9.5 -38 9.5 -64c0 -58.667 -14.667 -101 -44 -127s-73 -39 -131 -39c-56 0 -97 13.667 -123 41s-39 68.666 -39 123.999v38h87v-37
c0 -60 26.333 -90 79 -90c27.333 0 48.166 7.33301 62.499 22s21.5 35.667 21.5 63c0 22.667 -4.16699 40.334 -12.5 53.001s-22.5 24.667 -42.5 36c-11.333 6 -36 17.167 -74 33.5s-63.667 29.166 -77 38.499c-36 26 -54 60.333 -54 103c0 44.667 22.333 87.667 67 129
c-26 28 -39 63 -39 105c0 54.667 13.167 94.667 39.5 120s66.833 38 121.5 38c52.667 0 91.334 -11.667 116.001 -35s37 -60.666 37 -111.999c0 -17.333 -0.333008 -30.333 -1 -39h-80c0 16 -0.166992 27.333 -0.5 34s-1.66602 16.5 -3.99902 29.5s-6 22.333 -11 28
s-12.5 11 -22.5 16s-22.333 7.5 -37 7.5c-50 0 -75 -26 -75 -78c0 -6 0.5 -11.833 1.5 -17.5s2.16699 -10.5 3.5 -14.5s3.66602 -8.16699 6.99902 -12.5s5.83301 -7.83301 7.5 -10.5s5.16699 -5.83398 10.5 -9.50098s8.83301 -6.16699 10.5 -7.5s6.16699 -3.83301 13.5 -7.5
l13 -6.5c1.33301 -0.666992 6.16602 -2.66699 14.499 -6s13.166 -5.33301 14.499 -6c32 -13.333 56 -23.666 72 -30.999c58.667 -28 88 -67.667 88 -119zM319.002 286.999c0 9.33301 -2.00098 18 -6.00098 26s-7.83301 14.5 -11.5 19.5s-10.667 10.5 -21 16.5
s-17.5 10 -21.5 12s-12.667 5.66699 -26 11s-20.666 8.33301 -21.999 9c-18 7.33301 -45 19 -81 35c-26 -24.667 -39 -48 -39 -70c0 -21.333 9 -39.333 27 -54c8 -6.66699 22.5 -15.167 43.5 -25.5s44.5 -21 70.5 -32s42.667 -18.5 50 -22.5c24.667 24.667 37 49.667 37 75z
" />
    <glyph glyph-name="dieresis" unicode="&#xa8;" horiz-adv-x="229" 
d="M231 563h-78v103h78v-103zM77 563h-79v103h79v-103z" />
    <glyph glyph-name="copyright" unicode="&#xa9;" horiz-adv-x="832" 
d="M772 354c0 -100.667 -34.332 -185.333 -102.999 -254s-153.334 -103 -254.001 -103c-98.667 0 -182.5 34.667 -251.5 104s-103.5 153.333 -103.5 252c0 99.333 34.667 183.5 104 252.5s153.333 103.5 252 103.5c99.333 0 183.5 -34.333 252.5 -103
s103.5 -152.667 103.5 -252zM736.001 352.001c0 90.667 -31.001 167.167 -93.001 229.5s-137.667 93.5 -227 93.5c-88.667 0 -164.167 -31.5 -226.5 -94.5s-93.5 -139.167 -93.5 -228.5s31 -165.166 93 -227.499s137.333 -93.5 226 -93.5s164.334 31.167 227.001 93.5
s94 138.166 94 227.499zM561 258.001c0 -42.667 -3.99902 -72.3301 -11.999 -88.9971c-16.667 -36.667 -55.667 -55 -117 -55c-44.667 0 -79 10.667 -103 32c-25.333 22 -38 61.333 -38 118v173c0 38.667 4.66699 67.667 14 87c19.333 42 61.666 63 126.999 63
c39.333 0 70.333 -8.66699 93 -26c14 -10.667 23.5 -24.334 28.5 -41.001s7.5 -42 7.5 -76v-33h-72v31c0 24.667 -2 43 -6 55c-6.66699 20.667 -24.667 31 -54 31c-24 0 -40.5 -7.33301 -49.5 -22s-13.5 -41.334 -13.5 -80.001v-151c0 -38.667 4.5 -65.334 13.5 -80.001
s25.5 -22 49.5 -22c20 0 34.333 4.33301 43 13c5.33301 4 9 10 11 18c4 12.667 6 31 6 55v28h72v-29z" />
    <glyph glyph-name="ordfeminine" unicode="&#xaa;" horiz-adv-x="229" 
d="M217 392l-76.001 0.00292969v21c-16 -17.333 -33.667 -26 -53 -26c-24 -0.666992 -42.167 7.33301 -54.5 24s-18.5 37 -18.5 61c0 10 1 19.167 3 27.5s4.33301 15.166 7 20.499s7.33398 11.166 14.001 17.499s12 11.166 16 14.499s11.5 8.83301 22.5 16.5l24.5 17.5
c5.33301 3.33301 11.666 8 18.999 14s12.333 10 15 12v7v8.5c0 1.66699 -0.166992 4.16699 -0.5 7.5s-0.833008 6 -1.5 8s-1.66699 4.16699 -3 6.5s-3 4.16602 -5 5.49902s-4.5 2.5 -7.5 3.5s-6.5 1.5 -10.5 1.5c-20 0.666992 -30 -12.666 -30 -39.999v-25h-53v30
c0 20.667 1.66699 34.667 5 42c12.667 30 39.334 45 80.001 45c20 0 36.5 -3.33301 49.5 -10s21.833 -16.167 26.5 -28.5s7.5 -22 8.5 -29s1.5 -15.833 1.5 -26.5v-172c0 -20.667 7 -38.667 21 -54zM138.999 512.003l-0.000976562 41c-4 -3.33301 -12.167 -9.5 -24.5 -18.5
s-20.166 -15.333 -23.499 -19s-7 -9.5 -11 -17.5s-6 -17 -6 -27c0 -23.333 9.33301 -35 28 -35c24.667 0 37 25.333 37 76z" />
    <glyph glyph-name="guillemotleft" unicode="&#xab;" horiz-adv-x="354" 
d="M324 80l-139 158v86l139 156v-116l-74 -83l74 -84v-117zM162 80l-140 158v86l140 156v-116l-74 -83l74 -84v-117z" />
    <glyph glyph-name="logicalnot" unicode="&#xac;" horiz-adv-x="559" 
d="M475 75h-85v185h-329v73h414v-258z" />
    <glyph glyph-name="registered" unicode="&#xae;" horiz-adv-x="832" 
d="M772 354c0 -100.667 -34.332 -185.333 -102.999 -254s-153.334 -103 -254.001 -103c-98.667 0 -182.5 34.667 -251.5 104s-103.5 153.333 -103.5 252c0 99.333 34.667 183.5 104 252.5s153.333 103.5 252 103.5c99.333 0 183.5 -34.333 252.5 -103
s103.5 -152.667 103.5 -252zM736.001 352.001c0 90.667 -31.001 167.167 -93.001 229.5s-137.667 93.5 -227 93.5c-88.667 0 -164.167 -31.5 -226.5 -94.5s-93.5 -139.167 -93.5 -228.5s31 -165.166 93 -227.499s137.333 -93.5 226 -93.5s164.334 31.167 227.001 93.5
s94 138.166 94 227.499zM573 125.001l-80 0.000976562l-88 189h-33v-189h-72v449h95c58.667 0 98 -6 118 -18c14.667 -9.33301 25.167 -22.333 31.5 -39s9.5 -40.334 9.5 -71.001c0 -39.333 -5.33301 -68 -16 -86s-30.667 -31.667 -60 -41zM482 446.002
c0 30 -5.33203 49.666 -15.999 58.999c-8 7.33301 -32.667 11 -74 11h-20v-145h23c35.333 0 58.666 4.83301 69.999 14.5s17 29.834 17 60.501z" />
    <glyph glyph-name="macron" unicode="&#xaf;" horiz-adv-x="229" 
d="M223 575h-217v64h217v-64z" />
    <glyph glyph-name="degree" unicode="&#xb0;" horiz-adv-x="354" 
d="M338 594c0 -44.667 -15.667 -82.834 -47 -114.501s-69.333 -47.5 -114 -47.5s-82.667 15.833 -114 47.5s-47 69.834 -47 114.501s15.667 82.667 47 114s69.333 47 114 47c45.333 0 83.5 -15.5 114.5 -46.5s46.5 -69.167 46.5 -114.5zM256 596
c0 22 -7.66699 40.667 -23 56s-34 23 -56 23s-40.667 -7.66699 -56 -23s-23 -34 -23 -56c0 -21.333 7.83301 -39.833 23.5 -55.5s34.167 -23.5 55.5 -23.5c22 0 40.667 7.66699 56 23s23 34 23 56z" />
    <glyph glyph-name="plusminus" unicode="&#xb1;" horiz-adv-x="559" 
d="M476 296h-155v-169h-82v169h-155v73h155v170h82v-170h155v-73zM476 0h-392v73h392v-73z" />
    <glyph glyph-name="twosuperior" unicode="&#xb2;" horiz-adv-x="250" 
d="M225 265l-203.003 0.000976562v60l89 151c2.66699 4 6.83398 10.667 12.501 20s9.16699 15.333 10.5 18l7.5 14.5c3.66699 7 5.83398 12.167 6.50098 15.5s1.83398 8 3.50098 14s2.66699 12 3 18s0.5 13 0.5 21v3c0 32.667 -11.333 49 -34 49
c-10 0 -17.5 -3.66699 -22.5 -11s-7.66699 -13.5 -8 -18.5s-0.5 -12.833 -0.5 -23.5v-56h-63v60c0 27.333 3.16699 48.5 9.5 63.5s17.5 27.167 33.5 36.5c13.333 8 31 12 53 12c28.667 -0.666992 52 -10.334 70 -29.001s27 -48.667 27 -90s-13.667 -85 -41 -131l-83 -137
h129v-60z" />
    <glyph glyph-name="threesuperior" unicode="&#xb3;" horiz-adv-x="250" 
d="M224 376c0 -20.667 -2.00098 -37.665 -6.00098 -50.998c-6.66699 -19.333 -17.667 -34.333 -33 -45s-27.166 -16.667 -35.499 -18s-16.5 -2 -24.5 -2c-20.667 -0.666992 -39.334 2.66602 -56.001 9.99902c-18 9.33301 -30.667 20.666 -38 33.999s-11 33.333 -11 60v43h63
v-23v-10.5v-12c0 -2.33301 0.333008 -6 1 -11s1.66699 -8.83301 3 -11.5s3.16602 -5.66699 5.49902 -9s5.66602 -5.66602 9.99902 -6.99902s9.16602 -2 14.499 -2c12.667 0 22.167 3.66699 28.5 11s9.83301 15.166 10.5 23.499s1 22.166 1 41.499v12
c0 19.333 -3 33.833 -9 43.5s-19 14.5 -39 14.5c-2.66699 0 -6.66699 -0.166992 -12 -0.5s-9.66602 -0.5 -12.999 -0.5v62c2.66699 0 6.33398 -0.166992 11.001 -0.5s8.33398 -0.5 11.001 -0.5c15.333 0 26.833 3.66699 34.5 11s11.5 22 11.5 44
c0 17.333 -0.333008 29.833 -1 37.5s-3.5 14.834 -8.5 21.501s-12.5 10 -22.5 10c-20 0 -30 -19 -30 -57v-23h-63v28v4c-1.33301 72.667 30.334 109 95.001 109c64 0 96 -40 96 -120c0 -35.333 -4 -59 -12 -71c-5.33301 -8 -13 -15.333 -23 -22
c10 -4.66699 17.667 -10.334 23 -17.001c12 -15.333 18 -50.666 18 -105.999z" />
    <glyph glyph-name="acute" unicode="&#xb4;" horiz-adv-x="229" 
d="M196 671l-98 -107h-65l53 107h110z" />
    <glyph glyph-name="mu" unicode="&#xb5;" 
d="M355 0h-101.001v47c-14.667 -22 -27.167 -36.833 -37.5 -44.5s-22.833 -11.5 -37.5 -11.5c-19.333 0 -37.666 8.66699 -54.999 26v-176h-80v659h80v-346c0 -34.667 2.66699 -58.667 8 -72c8.66699 -20.667 26.334 -31 53.001 -31c23.333 0 40.333 9 51 27s16 47 16 87
v335h79v-419c0 -22.667 1.66699 -39.5 5 -50.5s9.66602 -21.167 18.999 -30.5z" />
    <glyph glyph-name="paragraph" unicode="&#xb6;" horiz-adv-x="632" 
d="M499 643h-33.999v-810h-58v810h-121v-810h-58v486c-94.667 24 -142 86.333 -142 187c0 64 19.667 114 59 150c20.667 19.333 43.667 32.5 69 39.5s61.666 10.5 108.999 10.5h176v-63z" />
    <glyph glyph-name="periodcentered" unicode="&#xb7;" horiz-adv-x="167" 
d="M126 209h-85v118h85v-118z" />
    <glyph glyph-name="cedilla" unicode="&#xb8;" horiz-adv-x="229" 
d="M208 -128c0 -13.333 -4.33105 -27.334 -12.998 -42.001c-20.667 -31.333 -52.667 -47 -96 -47c-23.333 0 -49.333 6.66699 -78 20l13 24c24.667 -9.33301 43 -14 55 -14c14 0 27.167 4.66699 39.5 14s18.5 21.333 18.5 36c0 10.667 -3.83301 19.834 -11.5 27.501
s-16.834 11.167 -27.501 10.5c-8.66699 0 -18.667 -4.33301 -30 -13l-21 8l37 109h28l-28 -79c18.667 6.66699 33.667 10 45 10c19.333 0 35.666 -5.83301 48.999 -17.5s20 -27.167 20 -46.5z" />
    <glyph glyph-name="onesuperior" unicode="&#xb9;" horiz-adv-x="250" 
d="M164 265l-68 0.000976562v335h-70v55h11.5h14c2.33301 0 6.5 0.333008 12.5 1s10.333 1.5 13 2.5s6.16699 2.66699 10.5 5s7.5 5.16602 9.5 8.49902s3.83301 7.5 5.5 12.5s2.5 10.5 2.5 16.5v5h59v-441z" />
    <glyph glyph-name="ordmasculine" unicode="&#xba;" horiz-adv-x="229" 
d="M206 554c0 -27.333 -0.336914 -49.001 -1.00391 -65.001c-1.33301 -39.333 -10.666 -66.666 -27.999 -81.999c-15.333 -13.333 -36.666 -19.666 -63.999 -18.999c-23.333 0.666992 -40.333 4.33398 -51 11.001c-16.667 10 -27.334 22.5 -32.001 37.5s-7 38.833 -7 71.5
v46c0 26.667 0.333008 48 1 64c0.666992 9.33301 1.33398 16.166 2.00098 20.499s2.66699 12.166 6 23.499s7.83301 19.833 13.5 25.5s14.5 11.167 26.5 16.5s26 8 42 8c11.333 0 21.5 -1 30.5 -3s16.667 -5.16699 23 -9.5s11.833 -8.5 16.5 -12.5s8.33398 -10 11.001 -18
l6.5 -19.5c1.66699 -5 2.83398 -12.667 3.50098 -23s1.16699 -17.5 1.5 -21.5s0.333008 -11.667 0 -23s-0.5 -18.333 -0.5 -21v-7zM142.996 554.999c0 6.66699 -0.166016 16.499 -0.499023 29.499s-0.5 22.833 -0.5 29.5c0 8.66699 -0.166992 15.5 -0.5 20.5
s-2.83301 10.5 -7.5 16.5s-11.334 9 -20.001 9c-10 0 -17.667 -5.33301 -23 -16c-2.66699 -4 -4 -33.667 -4 -89c0 -64.667 2 -99.667 6 -105c6 -8.66699 13 -13 21 -13c4.66699 0 8.66699 0.833008 12 2.5s6 4 8 7s3.5 5.83301 4.5 8.5s1.5 5.33398 1.5 8.00098l1 4l1 16
c0 10.667 0.166992 23 0.5 37s0.5 25.667 0.5 35z" />
    <glyph glyph-name="guillemotright" unicode="&#xbb;" horiz-adv-x="354" 
d="M332 238l-140 -158v117l74 84l-74 83v116l140 -156v-86zM170 238l-140 -158v117l74 84l-74 83v116l140 -156v-86z" />
    <glyph glyph-name="onequarter" unicode="&#xbc;" horiz-adv-x="625" 
d="M606 96h-38v-96h-64v96h-111v67l88 279h87v-287h38v-59zM509 706l-344 -706h-49l347 706h46zM164 265l-68 0.000976562v335h-70v55h11.5h14c2.33301 0 6.5 0.333008 12.5 1s10.333 1.5 13 2.5s6.16699 2.66699 10.5 5s7.5 5.16602 9.5 8.49902s3.83301 7.5 5.5 12.5
s2.5 10.5 2.5 16.5v5h59v-441zM505 339.001l-56 -184h55z" />
    <glyph glyph-name="onehalf" unicode="&#xbd;" horiz-adv-x="625" 
d="M600 0l-203 0.00390625v60l89 151c2 4 5.5 10.167 10.5 18.5s8.33301 13.666 10 15.999s4.16699 6.66602 7.5 12.999s5.5 10.833 6.5 13.5s2.33301 6.66699 4 12s2.66699 10.166 3 14.499s0.833008 9.5 1.5 15.5s1 12.333 1 19v3c0 32 -11.333 48 -34 48
c-10 0 -17.5 -3.66699 -22.5 -11s-7.66699 -13.5 -8 -18.5s-0.5 -12.833 -0.5 -23.5v-56h-63v60c0 27.333 3.16699 48.5 9.5 63.5s17.5 27.167 33.5 36.5c13.333 8 31 12 53 12c28.667 -0.666992 52 -10.334 70 -29.001s27 -48.667 27 -90s-13.667 -85 -41 -131l-83 -137
h129v-60zM495 706.004l-344 -706h-49l348 706h45zM164 265.004l-68 0.000976562v335h-70v55h11.5h14c2.33301 0 6.5 0.333008 12.5 1s10.333 1.5 13 2.5s6.16699 2.66699 10.5 5s7.5 5.16602 9.5 8.49902s3.83301 7.5 5.5 12.5s2.5 10.5 2.5 16.5v5h59v-441z" />
    <glyph glyph-name="threequarters" unicode="&#xbe;" horiz-adv-x="625" 
d="M606 96h-38v-96h-64v96h-111v67l88 279h87v-287h38v-59zM525 706l-344 -706h-49l348 706h45zM224 376c0 -20.667 -2.00098 -37.665 -6.00098 -50.998c-6.66699 -19.333 -17.667 -34.333 -33 -45s-27.166 -16.667 -35.499 -18s-16.5 -2 -24.5 -2
c-20.667 -0.666992 -39.334 2.66602 -56.001 9.99902c-18 9.33301 -30.667 20.666 -38 33.999s-11 33.333 -11 60v43h63v-23v-10.5v-12c0 -2.33301 0.333008 -6 1 -11s1.66699 -8.83301 3 -11.5s3.16602 -5.66699 5.49902 -9s5.66602 -5.66602 9.99902 -6.99902
s9.16602 -2 14.499 -2c12.667 0 22.167 3.66699 28.5 11s9.83301 15.166 10.5 23.499s1 22.166 1 41.499v12c0 19.333 -3 33.833 -9 43.5s-19 14.5 -39 14.5c-2.66699 0 -6.66699 -0.166992 -12 -0.5s-9.66602 -0.5 -12.999 -0.5v62
c2.66699 0 6.33398 -0.166992 11.001 -0.5s8.33398 -0.5 11.001 -0.5c15.333 0 26.833 3.66699 34.5 11s11.5 22 11.5 44c0 17.333 -0.333008 29.833 -1 37.5s-3.5 14.834 -8.5 21.501s-12.5 10 -22.5 10c-20 0 -30 -19 -30 -57v-23h-63v28v4
c-1.33301 72.667 30.334 109 95.001 109c64 0 96 -40 96 -120c0 -35.333 -4 -59 -12 -71c-5.33301 -8 -13 -15.333 -23 -22c10 -4.66699 17.667 -10.334 23 -17.001c12 -15.333 18 -50.666 18 -105.999zM504.999 339.002l-56 -184h55z" />
    <glyph glyph-name="questiondown" unicode="&#xbf;" horiz-adv-x="396" 
d="M216 589h-85v117h85v-117zM338 140c0 -35.333 -5 -62.998 -15 -82.998c-11.333 -22.667 -29.333 -39.5 -54 -50.5s-51 -16.5 -79 -16.5c-31.333 0 -59.666 6.66699 -84.999 20c-14 7.33301 -25.833 17 -35.5 29s-16.667 22.167 -21 30.5s-7.5 20.166 -9.5 35.499
s-3 24.166 -3 26.499v21.5c0 36.667 1.33301 63.667 4 81c2 10.667 5 21 9 31s7.66699 18 11 24s10.666 17.833 21.999 35.5l26 41.5c10.667 18 16.667 28.333 18 31c10.667 21.333 16 46.333 16 75c0 5.33301 -0.166992 13 -0.5 23s-0.5 17.333 -0.5 22h66v-39
c0 -36 -2.5 -63.5 -7.5 -82.5s-19.833 -50.833 -44.5 -95.5c-11.333 -20.667 -18.333 -34.334 -21 -41.001c-8 -18 -12.333 -46.333 -13 -85c0 -3.33301 -0.166992 -8.33301 -0.5 -15s-0.5 -11.667 -0.5 -15c0 -10.667 1.66699 -20.667 5 -30c10.667 -30 33.667 -45 69 -45
c14 0 26.667 3.33301 38 10c18.667 10.667 28 34.334 28 71.001v91h78v-101z" />
    <glyph glyph-name="Agrave" unicode="&#xc0;" horiz-adv-x="396" 
d="M243 764h-65l-97 107h109zM396 0h-92l-25 136h-164l-24 -136h-91l152 706h88zM264 212l-69 363l-65 -363h134z" />
    <glyph glyph-name="Aacute" unicode="&#xc1;" horiz-adv-x="396" 
d="M316 871l-98 -107h-64l53 107h109zM396 0h-92l-25 136h-164l-24 -136h-91l152 706h88zM264 212l-69 363l-65 -363h134z" />
    <glyph glyph-name="Acircumflex" unicode="&#xc2;" horiz-adv-x="396" 
d="M335 764h-88l-53 60l-57 -60h-67l101 107h65zM396 0h-92l-25 136h-164l-24 -136h-91l152 706h88zM264 212l-69 363l-65 -363h134z" />
    <glyph glyph-name="Atilde" unicode="&#xc3;" horiz-adv-x="396" 
d="M325 858c-0.666992 -11.333 -2.66895 -22.665 -6.00195 -33.998c-12.667 -36.667 -35.667 -55 -69 -55c-13.333 0 -39.666 7.66699 -78.999 23l-6 2c-4 1.33301 -8.83301 2.66602 -14.5 3.99902s-10.5 2 -14.5 2c-15.333 0 -24.666 -10.333 -27.999 -31h-35
c0 30 9 53.333 27 70c8 7.33301 16.333 12.666 25 15.999c6 2.66699 13.667 4 23 4c16.667 0 42 -7 76 -21c17.333 -6.66699 30 -10 38 -10c15.333 0 24.333 10 27 30h36zM395.998 0.000976562h-92l-25 136h-164l-24 -136h-91l152 706h88zM263.998 212.001l-69 363l-65 -363
h134z" />
    <glyph glyph-name="Adieresis" unicode="&#xc4;" horiz-adv-x="396" 
d="M329 764h-83v107h83v-107zM151 764h-83v107h83v-107zM396 0h-92l-25 136h-164l-24 -136h-91l152 706h88zM264 212l-69 363l-65 -363h134z" />
    <glyph glyph-name="Aring" unicode="&#xc5;" horiz-adv-x="396" 
d="M279 828c0 -22 -7.83203 -40.833 -23.499 -56.5s-34.834 -23.5 -57.501 -23.5c-22 0 -40.833 7.83301 -56.5 23.5s-23.5 34.5 -23.5 56.5s8 40.833 24 56.5s35 23.5 57 23.5s40.833 -7.83301 56.5 -23.5s23.5 -34.5 23.5 -56.5zM396.001 0h-92l-25 136h-164l-24 -136h-91
l152 706h88zM235.001 829c0 10 -3.50098 18.499 -10.501 25.499s-15.833 10.5 -26.5 10.5c-10 0 -18.667 -3.66699 -26 -11s-10.666 -16 -9.99902 -26c0 -9.33301 3.66699 -17.666 11 -24.999s16 -11 26 -11s18.5 3.5 25.5 10.5s10.5 15.833 10.5 26.5zM264 211.999l-69 363
l-65 -363h134z" />
    <glyph glyph-name="AE" unicode="&#xc6;" horiz-adv-x="625" 
d="M605 0h-308v155h-153l-52 -155h-92l249 706h343v-79h-208v-210h178v-80h-178v-258h221v-79zM297 231v386l-127 -386h127z" />
    <glyph glyph-name="Ccedilla" unicode="&#xc7;" horiz-adv-x="417" 
d="M380 225c0 -34.667 -0.334961 -59.832 -1.00195 -75.499s-2.66699 -32.167 -6 -49.5s-9 -32.666 -17 -45.999c-12 -21.333 -32.667 -38 -62 -50c-19.333 -7.33301 -42.333 -12.333 -69 -15l-12 1l-20 -58c16 6.66699 31 10 45 10c18.667 0 34.667 -5.83301 48 -17.5
s20 -27.167 20 -46.5c0 -20.667 -9.16699 -40.5 -27.5 -59.5s-44.5 -28.833 -78.5 -29.5c-24 -0.666992 -50.667 6 -80 20l13 24c18.667 -9.33301 36.667 -14 54 -14c18.667 0 33 5.5 43 16.5s15 21.833 15 32.5s-3.83301 19.834 -11.5 27.501s-16.834 11.5 -27.501 11.5
c-11.333 0 -21.333 -4.33301 -30 -13l-20 7l29 89c-63.333 12 -105 43.333 -125 94c-4 10 -7.16699 23 -9.5 39s-4 40 -5 72s-1.5 55.333 -1.5 70v92c0 57.333 0.166992 96.833 0.5 118.5s1.83301 47.5 4.5 77.5s7 53 13 69c10 26.667 25.667 47.667 47 63
c30 21.333 67.333 32 112 32c36 0 68 -9 96 -27c23.333 -16 39 -35.833 47 -59.5s12 -57.834 12 -102.501c0 -18.667 -0.333008 -33.334 -1 -44.001h-81v26c0 49.333 -3 81 -9 95c-5.33301 10.667 -12.666 19.667 -21.999 27c-10 7.33301 -24 11 -42 11
c-14 0 -26.167 -2 -36.5 -6s-18.333 -9.66699 -24 -17s-10 -14 -13 -20s-5.5 -13.333 -7.5 -22c-6 -24.667 -9 -100.334 -9 -227.001c0 -120.667 2 -193 6 -217c0 -13.333 4.33301 -26 13 -38c16 -21.333 39 -32 69 -32c16.667 0 31.334 4 44.001 12
c10 7.33301 17.667 17.166 23 29.499s8.33301 23 9 32s1.33398 22.5 2.00098 40.5c0.666992 10.667 1 25.334 1 44.001v26h82v-23z" />
    <glyph glyph-name="Egrave" unicode="&#xc8;" horiz-adv-x="396" 
d="M243 764h-65l-97 107h109zM368 0h-318v706h311v-79h-223v-210h195v-80h-195v-258h230v-79z" />
    <glyph glyph-name="Eacute" unicode="&#xc9;" horiz-adv-x="396" 
d="M316 871l-98 -107h-64l53 107h109zM368 0h-318v706h311v-79h-223v-210h195v-80h-195v-258h230v-79z" />
    <glyph glyph-name="Ecircumflex" unicode="&#xca;" horiz-adv-x="396" 
d="M329 764h-87l-53 60l-58 -60h-66l101 107h65zM368 0h-318v706h311v-79h-223v-210h195v-80h-195v-258h230v-79z" />
    <glyph glyph-name="Edieresis" unicode="&#xcb;" horiz-adv-x="396" 
d="M329 764h-83v107h83v-107zM151 764h-83v107h83v-107zM368 0h-318v706h311v-79h-223v-210h195v-80h-195v-258h230v-79z" />
    <glyph glyph-name="Igrave" unicode="&#xcc;" horiz-adv-x="187" 
d="M139 764h-65l-97 107h109zM137 0h-87v706h87v-706z" />
    <glyph glyph-name="Iacute" unicode="&#xcd;" horiz-adv-x="187" 
d="M212 871l-98 -107h-64l53 107h109zM137 0h-87v706h87v-706z" />
    <glyph glyph-name="Icircumflex" unicode="&#xce;" horiz-adv-x="187" 
d="M225 764h-87l-53 60l-58 -60h-67l102 107h65zM137 0h-87v706h87v-706z" />
    <glyph glyph-name="Idieresis" unicode="&#xcf;" horiz-adv-x="187" 
d="M225 764h-83v107h83v-107zM47 764h-83v107h83v-107zM137 0h-87v706h87v-706z" />
    <glyph glyph-name="Eth" unicode="&#xd0;" horiz-adv-x="437" 
d="M393 248c0 -48.667 -0.668945 -80.998 -2.00195 -96.998c-1.33301 -17.333 -3.66602 -31.333 -6.99902 -42c-16 -54.667 -50.667 -89 -104 -103c-17.333 -4 -50 -6 -98 -6h-132v355h-49v64h49v287h133c18.667 0 32 -0.166992 40 -0.5s21 -1.33301 39 -3
s31.833 -4.83398 41.5 -9.50098s20.834 -11 33.501 -19s23 -18.833 31 -32.5s14 -29.834 18 -48.501c2.66699 -14 4.66699 -45.333 6 -94c0.666992 -24 1 -56.667 1 -98v-153zM306.998 332.002c0 143.333 -2.99902 223.999 -8.99902 241.999
c-4.66699 14.667 -11.334 25.667 -20.001 33c-15.333 12 -47 18 -95 18h-45v-206h88v-64h-88v-277h43c42 0 71 3.83301 87 11.5s27 25.834 33 54.501c4 20 6 82.667 6 188z" />
    <glyph glyph-name="Ntilde" unicode="&#xd1;" horiz-adv-x="437" 
d="M346 858c-1.33301 -14.667 -3.33203 -26 -5.99902 -34c-5.33301 -16.667 -14 -30 -26 -40s-26.333 -15 -43 -15c-12.667 0 -39.334 7.66699 -80.001 23l-6 2c-4 1.33301 -8.66699 2.66602 -14 3.99902s-10 2 -14 2c-6.66699 0 -12 -1.66699 -16 -5
s-6.66699 -6.66602 -8 -9.99902s-2.66602 -8.66602 -3.99902 -15.999h-36c2.66699 32.667 12 56 28 70c7.33301 7.33301 15.666 12.666 24.999 15.999c6 2.66699 13.667 4 23 4c16.667 0 42 -7 76 -21c17.333 -6.66699 30 -10 38 -10c15.333 0 24.333 10 27 30h36z
M387.001 0h-124l-138 612l12 -612h-87v706h121l143 -618l-12 618h85v-706z" />
    <glyph glyph-name="Ograve" unicode="&#xd2;" horiz-adv-x="437" 
d="M263 764h-64l-97 107h109zM394 363c0 -16 -0.666016 -38.5 -1.99902 -67.5s-2 -48.167 -2 -57.5c0 -14 -0.666992 -35 -2 -63c-6 -72.667 -23.667 -122 -53 -148c-28.667 -24.667 -69.334 -37 -122.001 -37c-64.667 0 -110.334 19 -137.001 57
c-9.33301 12.667 -16.333 27.667 -21 45c-7.33301 26 -11 100.333 -11 223c0 42 0.666992 105.667 2 191c2 72 14.667 123 38 153c30.667 38.667 78.334 58 143.001 58c72 0 120.333 -26 145 -78c9.33301 -18.667 15 -39.667 17 -63c5.33301 -44.667 7 -115.667 5 -213z
M304.001 363c0 65.333 -0.331055 114.334 -0.998047 147.001c0 49.333 -4.66699 82 -14 98c-13.333 23.333 -36 35 -68 35c-20.667 0 -38 -5.66699 -52 -17c-15.333 -12.667 -25 -29.834 -29 -51.501s-6 -56.5 -6 -104.5v-49c0 -90.667 0.333008 -158.667 1 -204
c0 -54 2.33301 -88.333 7 -103c11.333 -34.667 36.666 -52 75.999 -52c34 0 57 13.667 69 41c9.33301 20.667 14.666 76 15.999 166c0.666992 20.667 1 52 1 94z" />
    <glyph glyph-name="Oacute" unicode="&#xd3;" horiz-adv-x="437" 
d="M337 871l-98 -107h-64l53 107h109zM394 363c0 -16 -0.666016 -38.5 -1.99902 -67.5s-2 -48.167 -2 -57.5c0 -14 -0.666992 -35 -2 -63c-6 -72.667 -23.667 -122 -53 -148c-28.667 -24.667 -69.334 -37 -122.001 -37c-64.667 0 -110.334 19 -137.001 57
c-9.33301 12.667 -16.333 27.667 -21 45c-7.33301 26 -11 100.333 -11 223c0 42 0.666992 105.667 2 191c2 72 14.667 123 38 153c30.667 38.667 78.334 58 143.001 58c72 0 120.333 -26 145 -78c9.33301 -18.667 15 -39.667 17 -63c5.33301 -44.667 7 -115.667 5 -213z
M304.001 363c0 65.333 -0.331055 114.334 -0.998047 147.001c0 49.333 -4.66699 82 -14 98c-13.333 23.333 -36 35 -68 35c-20.667 0 -38 -5.66699 -52 -17c-15.333 -12.667 -25 -29.834 -29 -51.501s-6 -56.5 -6 -104.5v-49c0 -90.667 0.333008 -158.667 1 -204
c0 -54 2.33301 -88.333 7 -103c11.333 -34.667 36.666 -52 75.999 -52c34 0 57 13.667 69 41c9.33301 20.667 14.666 76 15.999 166c0.666992 20.667 1 52 1 94z" />
    <glyph glyph-name="Ocircumflex" unicode="&#xd4;" horiz-adv-x="437" 
d="M350 764h-87l-53 60l-58 -60h-67l102 107h65zM394 363c0 -16 -0.666016 -38.5 -1.99902 -67.5s-2 -48.167 -2 -57.5c0 -14 -0.666992 -35 -2 -63c-6 -72.667 -23.667 -122 -53 -148c-28.667 -24.667 -69.334 -37 -122.001 -37c-64.667 0 -110.334 19 -137.001 57
c-9.33301 12.667 -16.333 27.667 -21 45c-7.33301 26 -11 100.333 -11 223c0 42 0.666992 105.667 2 191c2 72 14.667 123 38 153c30.667 38.667 78.334 58 143.001 58c72 0 120.333 -26 145 -78c9.33301 -18.667 15 -39.667 17 -63c5.33301 -44.667 7 -115.667 5 -213z
M304.001 363c0 65.333 -0.331055 114.334 -0.998047 147.001c0 49.333 -4.66699 82 -14 98c-13.333 23.333 -36 35 -68 35c-20.667 0 -38 -5.66699 -52 -17c-15.333 -12.667 -25 -29.834 -29 -51.501s-6 -56.5 -6 -104.5v-49c0 -90.667 0.333008 -158.667 1 -204
c0 -54 2.33301 -88.333 7 -103c11.333 -34.667 36.666 -52 75.999 -52c34 0 57 13.667 69 41c9.33301 20.667 14.666 76 15.999 166c0.666992 20.667 1 52 1 94z" />
    <glyph glyph-name="Otilde" unicode="&#xd5;" horiz-adv-x="437" 
d="M346 858c-1.33301 -14.667 -3.33203 -26 -5.99902 -34c-5.33301 -16.667 -14 -30 -26 -40s-26.333 -15 -43 -15c-12.667 0 -39.334 7.66699 -80.001 23l-6 2c-4 1.33301 -8.66699 2.66602 -14 3.99902s-10 2 -14 2c-6.66699 0 -12 -1.66699 -16 -5
s-6.66699 -6.66602 -8 -9.99902s-2.66602 -8.66602 -3.99902 -15.999h-36c2.66699 32.667 12 56 28 70c7.33301 7.33301 15.666 12.666 24.999 15.999c6 2.66699 13.667 4 23 4c16.667 0 42 -7 76 -21c17.333 -6.66699 30 -10 38 -10c15.333 0 24.333 10 27 30h36z
M394.001 363c0 -16 -0.666016 -38.5 -1.99902 -67.5s-2 -48.167 -2 -57.5c0 -14 -0.666992 -35 -2 -63c-6 -72.667 -23.667 -122 -53 -148c-28.667 -24.667 -69.334 -37 -122.001 -37c-64.667 0 -110.334 19 -137.001 57c-9.33301 12.667 -16.333 27.667 -21 45
c-7.33301 26 -11 100.333 -11 223c0 42 0.666992 105.667 2 191c2 72 14.667 123 38 153c30.667 38.667 78.334 58 143.001 58c72 0 120.333 -26 145 -78c9.33301 -18.667 15 -39.667 17 -63c5.33301 -44.667 7 -115.667 5 -213zM304.002 363
c0 65.333 -0.331055 114.334 -0.998047 147.001c0 49.333 -4.66699 82 -14 98c-13.333 23.333 -36 35 -68 35c-20.667 0 -38 -5.66699 -52 -17c-15.333 -12.667 -25 -29.834 -29 -51.501s-6 -56.5 -6 -104.5v-49c0 -90.667 0.333008 -158.667 1 -204
c0 -54 2.33301 -88.333 7 -103c11.333 -34.667 36.666 -52 75.999 -52c34 0 57 13.667 69 41c9.33301 20.667 14.666 76 15.999 166c0.666992 20.667 1 52 1 94z" />
    <glyph glyph-name="Odieresis" unicode="&#xd6;" horiz-adv-x="437" 
d="M350 764h-83v107h83v-107zM172 764h-83v107h83v-107zM394 363c0 -16 -0.666016 -38.5 -1.99902 -67.5s-2 -48.167 -2 -57.5c0 -14 -0.666992 -35 -2 -63c-6 -72.667 -23.667 -122 -53 -148c-28.667 -24.667 -69.334 -37 -122.001 -37c-64.667 0 -110.334 19 -137.001 57
c-9.33301 12.667 -16.333 27.667 -21 45c-7.33301 26 -11 100.333 -11 223c0 42 0.666992 105.667 2 191c2 72 14.667 123 38 153c30.667 38.667 78.334 58 143.001 58c72 0 120.333 -26 145 -78c9.33301 -18.667 15 -39.667 17 -63c5.33301 -44.667 7 -115.667 5 -213z
M304.001 363c0 65.333 -0.331055 114.334 -0.998047 147.001c0 49.333 -4.66699 82 -14 98c-13.333 23.333 -36 35 -68 35c-20.667 0 -38 -5.66699 -52 -17c-15.333 -12.667 -25 -29.834 -29 -51.501s-6 -56.5 -6 -104.5v-49c0 -90.667 0.333008 -158.667 1 -204
c0 -54 2.33301 -88.333 7 -103c11.333 -34.667 36.666 -52 75.999 -52c34 0 57 13.667 69 41c9.33301 20.667 14.666 76 15.999 166c0.666992 20.667 1 52 1 94z" />
    <glyph glyph-name="multiply" unicode="&#xd7;" horiz-adv-x="558" 
d="M447 184l-55 -59l-114 118l-105 -118l-53 48l109 121l-120 123l58 56l116 -119l108 120l51 -50l-110 -121z" />
    <glyph glyph-name="Oslash" unicode="&#xd8;" horiz-adv-x="437" 
d="M402 696l-28 -57.001c6 -15.333 9.66699 -26.333 11 -33c6.66699 -27.333 10 -97.666 10 -210.999c0 -24 -0.666992 -60 -2 -108c-2 -68.667 -3 -103.334 -3 -104.001c-4.66699 -78 -24 -131 -58 -159c-28 -22.667 -67.667 -34 -119 -34c-46.667 0 -84 10.333 -112 31
c-7.33301 6 -15.333 14 -24 24l-22 -45l-37 20l37 74c-7.33301 42.667 -11 106.334 -11 191.001c0 45.333 0.666992 112.666 2 201.999c0.666992 74 9.66699 125.667 27 155c30 50 80 75 150 75c41.333 0 75.333 -8 102 -24c4.66699 -3.33301 11.667 -8.66602 21 -15.999
l20 38zM299 581.999c-3.33301 14 -7.66699 25 -13 33c-14 18.667 -35.333 28 -64 28c-40 0 -66 -18.667 -78 -56c-6.66699 -20.667 -10 -81 -10 -181v-153zM305.999 427.999c0 8.66699 -0.166992 21.167 -0.5 37.5s-0.5 28.5 -0.5 36.5l-170 -339
c1.33301 -44 13 -73.333 35 -88c14 -8.66699 30.333 -13 49 -13c44.667 0 70.667 24.333 78 73c2 12.667 4.33301 67 7 163c1.33301 58.667 2 102 2 130z" />
    <glyph glyph-name="Ugrave" unicode="&#xd9;" horiz-adv-x="437" 
d="M263 764h-64l-97 107h109zM390 179c0 -41.333 -4.33203 -75.499 -12.999 -102.499s-28 -48.5 -58 -64.5c-26.667 -14.667 -60.667 -22 -102 -22c-58 0 -101 13.667 -129 41c-12 12 -21.667 28 -29 48c-8 23.333 -12 55.666 -12 96.999v530h89v-468
c0 -72 2.66699 -114.667 8 -128c7.33301 -19.333 21.333 -32.333 42 -39c10 -3.33301 21.667 -5 35 -5c29.333 0 50.666 8.66699 63.999 26c6 8 10 16.333 12 25c2.66699 12.667 4 41.667 4 87v502h89v-527z" />
    <glyph glyph-name="Uacute" unicode="&#xda;" horiz-adv-x="437" 
d="M337 871l-98 -107h-64l53 107h109zM390 179c0 -41.333 -4.33203 -75.499 -12.999 -102.499s-28 -48.5 -58 -64.5c-26.667 -14.667 -60.667 -22 -102 -22c-58 0 -101 13.667 -129 41c-12 12 -21.667 28 -29 48c-8 23.333 -12 55.666 -12 96.999v530h89v-468
c0 -72 2.66699 -114.667 8 -128c7.33301 -19.333 21.333 -32.333 42 -39c10 -3.33301 21.667 -5 35 -5c29.333 0 50.666 8.66699 63.999 26c6 8 10 16.333 12 25c2.66699 12.667 4 41.667 4 87v502h89v-527z" />
    <glyph glyph-name="Ucircumflex" unicode="&#xdb;" horiz-adv-x="437" 
d="M350 764h-87l-53 60l-58 -60h-67l102 107h65zM390 179c0 -41.333 -4.33203 -75.499 -12.999 -102.499s-28 -48.5 -58 -64.5c-26.667 -14.667 -60.667 -22 -102 -22c-58 0 -101 13.667 -129 41c-12 12 -21.667 28 -29 48c-8 23.333 -12 55.666 -12 96.999v530h89v-468
c0 -72 2.66699 -114.667 8 -128c7.33301 -19.333 21.333 -32.333 42 -39c10 -3.33301 21.667 -5 35 -5c29.333 0 50.666 8.66699 63.999 26c6 8 10 16.333 12 25c2.66699 12.667 4 41.667 4 87v502h89v-527z" />
    <glyph glyph-name="Udieresis" unicode="&#xdc;" horiz-adv-x="437" 
d="M350 764h-83v107h83v-107zM172 764h-83v107h83v-107zM390 179c0 -41.333 -4.33203 -75.499 -12.999 -102.499s-28 -48.5 -58 -64.5c-26.667 -14.667 -60.667 -22 -102 -22c-58 0 -101 13.667 -129 41c-12 12 -21.667 28 -29 48c-8 23.333 -12 55.666 -12 96.999v530h89
v-468c0 -72 2.66699 -114.667 8 -128c7.33301 -19.333 21.333 -32.333 42 -39c10 -3.33301 21.667 -5 35 -5c29.333 0 50.666 8.66699 63.999 26c6 8 10 16.333 12 25c2.66699 12.667 4 41.667 4 87v502h89v-527z" />
    <glyph glyph-name="Yacute" unicode="&#xdd;" horiz-adv-x="396" 
d="M326 871l-97 -107h-65l53 107h109zM396 706l-155 -420v-286h-91v286l-150 420h93l105 -353l105 353h93z" />
    <glyph glyph-name="Thorn" unicode="&#xde;" horiz-adv-x="417" 
d="M390 374c0 -36 -2.99902 -66.501 -8.99902 -91.501s-13.833 -44.667 -23.5 -59s-22.667 -25.333 -39 -33s-32.5 -12.667 -48.5 -15s-36 -3.5 -60 -3.5h-72v-172h-88v706h88v-117h57c44.667 0 78.5 -3.5 101.5 -10.5s43.167 -21.5 60.5 -43.5
c4.66699 -6 8.66699 -12.5 12 -19.5s6.16602 -13.333 8.49902 -19s4.33301 -13 6 -22s3 -15.667 4 -20s1.66699 -11.666 2 -21.999s0.5 -16.833 0.5 -19.5v-21v-18zM303.001 368.999c0 43.333 -2.83398 74.332 -8.50098 92.999s-19.834 32 -42.501 40c-12 4 -34.667 6 -68 6
h-46v-258h59c31.333 0 51 1.66699 59 5c11.333 4.66699 20.333 9.83398 27 15.501s11.334 14 14.001 25s4.33398 21 5.00098 30s1 23.5 1 43.5z" />
    <glyph glyph-name="germandbls" unicode="&#xdf;" horiz-adv-x="396" 
d="M350 249c0 -18 -0.668945 -45.0029 -2.00195 -81.0029c-1.33301 -38.667 -5 -66.667 -11 -84c-13.333 -40.667 -39.666 -67.334 -78.999 -80.001c-13.333 -4.66699 -29.333 -7 -48 -7c-12 0 -25.667 1.33301 -41 4v68c14 -3.33301 25.333 -5 34 -5
c26 0 43.667 10.333 53 31c8 18.667 12 57.667 12 117c0 33.333 -1 67 -3 101c-2 36.667 -7 61 -15 73c-10.667 16 -30.334 24 -59.001 24c-2 0 -5.66699 -0.166992 -11 -0.5s-9 -0.5 -11 -0.5v71c36 0 58.667 5 68 15s14 30 14 60c0 26.667 -3 46 -9 58
c-9.33301 19.333 -27.666 29 -54.999 29c-22.667 0 -39 -6.66699 -49 -20c-4 -5.33301 -7 -11.666 -9 -18.999c-2.66699 -9.33301 -4 -38.666 -4 -87.999v-515h-81v565c0 54 13 91.333 39 112c24 21.333 58.333 32 103 32c70 0 114.333 -25 133 -75
c6.66699 -16 10 -41.333 10 -76c0 -20.667 -2.16699 -38 -6.5 -52s-11 -24.667 -20 -32s-17.167 -12.666 -24.5 -15.999s-17 -6.66602 -29 -9.99902c16.667 -3.33301 29.667 -7.33301 39 -12c32.667 -14.667 51.334 -41.667 56.001 -81c4 -22.667 6 -58 6 -106z" />
    <glyph glyph-name="agrave" unicode="&#xe0;" horiz-adv-x="354" 
d="M228 564h-64l-98 107h109zM333 0h-98v60c-22 -46 -56.667 -69 -104 -69c-22 0 -42 5.33301 -60 16c-34.667 20.667 -52 58.667 -52 114c0 44 13.333 79.333 40 106c6.66699 7.33301 14 13.833 22 19.5l35 24l41 27.5c22.667 16 47 36 73 60v17
c0 46.667 -20.333 70 -61 70c-12 0 -22.167 -2.16699 -30.5 -6.5s-14.333 -8.33301 -18 -12s-6.5 -10.167 -8.5 -19.5s-3 -15 -3 -17v-16c0 -8 0.666992 -20.667 2 -38h-73c0 19.333 0.333008 33.666 1 42.999c0.666992 15.333 1.16699 26.5 1.5 33.5s2.5 15.667 6.5 26
s9.66699 19.833 17 28.5c24 28 61.667 42 113 42c44 0 77.667 -12 101 -36c10 -10.667 18.333 -24.667 25 -42c4 -13.333 6 -41.666 6 -84.999v-240c0 -47.333 3 -77 9 -89c1.33301 -3.33301 6.33301 -9 15 -17zM230 162v123.001c-6.66699 -6.66699 -16 -15.334 -28 -26.001
c-10.667 -8 -19 -14 -25 -18c-27.333 -20.667 -44.666 -35.334 -51.999 -44.001c-16 -20.667 -24 -45 -24 -73c0 -50 18.333 -74.667 55 -74c21.333 0 39.666 9.66699 54.999 29c12.667 16.667 19 44.334 19 83.001z" />
    <glyph glyph-name="aacute" unicode="&#xe1;" horiz-adv-x="354" 
d="M295 671l-98 -107h-64l53 107h109zM333 0h-98v60c-22 -46 -56.667 -69 -104 -69c-22 0 -42 5.33301 -60 16c-34.667 20.667 -52 58.667 -52 114c0 44 13.333 79.333 40 106c6.66699 7.33301 14 13.833 22 19.5l35 24l41 27.5c22.667 16 47 36 73 60v17
c0 46.667 -20.333 70 -61 70c-12 0 -22.167 -2.16699 -30.5 -6.5s-14.333 -8.33301 -18 -12s-6.5 -10.167 -8.5 -19.5s-3 -15 -3 -17v-16c0 -8 0.666992 -20.667 2 -38h-73c0 19.333 0.333008 33.666 1 42.999c0.666992 15.333 1.16699 26.5 1.5 33.5s2.5 15.667 6.5 26
s9.66699 19.833 17 28.5c24 28 61.667 42 113 42c44 0 77.667 -12 101 -36c10 -10.667 18.333 -24.667 25 -42c4 -13.333 6 -41.666 6 -84.999v-240c0 -47.333 3 -77 9 -89c1.33301 -3.33301 6.33301 -9 15 -17zM230 162v123.001c-6.66699 -6.66699 -16 -15.334 -28 -26.001
c-10.667 -8 -19 -14 -25 -18c-27.333 -20.667 -44.666 -35.334 -51.999 -44.001c-16 -20.667 -24 -45 -24 -73c0 -50 18.333 -74.667 55 -74c21.333 0 39.666 9.66699 54.999 29c12.667 16.667 19 44.334 19 83.001z" />
    <glyph glyph-name="acircumflex" unicode="&#xe2;" horiz-adv-x="354" 
d="M314 563h-87l-54 63l-57 -63h-67l102 110h65zM333 0h-98v60c-22 -46 -56.667 -69 -104 -69c-22 0 -42 5.33301 -60 16c-34.667 20.667 -52 58.667 -52 114c0 44 13.333 79.333 40 106c6.66699 7.33301 14 13.833 22 19.5l35 24l41 27.5c22.667 16 47 36 73 60v17
c0 46.667 -20.333 70 -61 70c-12 0 -22.167 -2.16699 -30.5 -6.5s-14.333 -8.33301 -18 -12s-6.5 -10.167 -8.5 -19.5s-3 -15 -3 -17v-16c0 -8 0.666992 -20.667 2 -38h-73c0 19.333 0.333008 33.666 1 42.999c0.666992 15.333 1.16699 26.5 1.5 33.5s2.5 15.667 6.5 26
s9.66699 19.833 17 28.5c24 28 61.667 42 113 42c44 0 77.667 -12 101 -36c10 -10.667 18.333 -24.667 25 -42c4 -13.333 6 -41.666 6 -84.999v-240c0 -47.333 3 -77 9 -89c1.33301 -3.33301 6.33301 -9 15 -17zM230 162v123.001c-6.66699 -6.66699 -16 -15.334 -28 -26.001
c-10.667 -8 -19 -14 -25 -18c-27.333 -20.667 -44.666 -35.334 -51.999 -44.001c-16 -20.667 -24 -45 -24 -73c0 -50 18.333 -74.667 55 -74c21.333 0 39.666 9.66699 54.999 29c12.667 16.667 19 44.334 19 83.001z" />
    <glyph glyph-name="atilde" unicode="&#xe3;" horiz-adv-x="354" 
d="M304 658c-0.666992 -14 -2.33496 -25.3301 -5.00195 -33.9971c-2 -6.66699 -5 -13.334 -9 -20.001s-11.5 -14.167 -22.5 -22.5s-23.833 -12.5 -38.5 -12.5c-7.33301 0 -15.666 1.33301 -24.999 4s-20 6.16699 -32 10.5s-19.667 7.16602 -23 8.49902
c-15.333 5.33301 -26.666 8 -33.999 8c-3.33301 0 -6.5 -0.5 -9.5 -1.5s-5.33301 -2.33301 -7 -4s-3.16699 -3.33398 -4.5 -5.00098s-2.33301 -3.66699 -3 -6s-1.16699 -4.16602 -1.5 -5.49902l-1.5 -6v-3h-36c0 29.333 9 52.666 27 69.999
c9.33301 8 17.666 13.333 24.999 16c8 2.66699 15.667 4 23 4c14 0 39.333 -7 76 -21c17.333 -6.66699 30.333 -10 39 -10c14.667 0 23.334 10 26.001 30h36zM332.999 0.00292969h-98v60c-22 -46 -56.667 -69 -104 -69c-22 0 -42 5.33301 -60 16
c-34.667 20.667 -52 58.667 -52 114c0 44 13.333 79.333 40 106c6.66699 7.33301 14 13.833 22 19.5l35 24l41 27.5c22.667 16 47 36 73 60v17c0 46.667 -20.333 70 -61 70c-12 0 -22.167 -2.16699 -30.5 -6.5s-14.333 -8.33301 -18 -12s-6.5 -10.167 -8.5 -19.5
s-3 -15 -3 -17v-16c0 -8 0.666992 -20.667 2 -38h-73c0 19.333 0.333008 33.666 1 42.999c0.666992 15.333 1.16699 26.5 1.5 33.5s2.5 15.667 6.5 26s9.66699 19.833 17 28.5c24 28 61.667 42 113 42c44 0 77.667 -12 101 -36c10 -10.667 18.333 -24.667 25 -42
c4 -13.333 6 -41.666 6 -84.999v-240c0 -47.333 3 -77 9 -89c1.33301 -3.33301 6.33301 -9 15 -17zM229.999 162.003v123.001c-6.66699 -6.66699 -16 -15.334 -28 -26.001c-10.667 -8 -19 -14 -25 -18c-27.333 -20.667 -44.666 -35.334 -51.999 -44.001
c-16 -20.667 -24 -45 -24 -73c0 -50 18.333 -74.667 55 -74c21.333 0 39.666 9.66699 54.999 29c12.667 16.667 19 44.334 19 83.001z" />
    <glyph glyph-name="adieresis" unicode="&#xe4;" horiz-adv-x="354" 
d="M290 563h-77v103h77v-103zM136 563h-79v103h79v-103zM333 0h-98v60c-22 -46 -56.667 -69 -104 -69c-22 0 -42 5.33301 -60 16c-34.667 20.667 -52 58.667 -52 114c0 44 13.333 79.333 40 106c6.66699 7.33301 14 13.833 22 19.5l35 24l41 27.5c22.667 16 47 36 73 60v17
c0 46.667 -20.333 70 -61 70c-12 0 -22.167 -2.16699 -30.5 -6.5s-14.333 -8.33301 -18 -12s-6.5 -10.167 -8.5 -19.5s-3 -15 -3 -17v-16c0 -8 0.666992 -20.667 2 -38h-73c0 19.333 0.333008 33.666 1 42.999c0.666992 15.333 1.16699 26.5 1.5 33.5s2.5 15.667 6.5 26
s9.66699 19.833 17 28.5c24 28 61.667 42 113 42c44 0 77.667 -12 101 -36c10 -10.667 18.333 -24.667 25 -42c4 -13.333 6 -41.666 6 -84.999v-240c0 -47.333 3 -77 9 -89c1.33301 -3.33301 6.33301 -9 15 -17zM230 162v123.001c-6.66699 -6.66699 -16 -15.334 -28 -26.001
c-10.667 -8 -19 -14 -25 -18c-27.333 -20.667 -44.666 -35.334 -51.999 -44.001c-16 -20.667 -24 -45 -24 -73c0 -50 18.333 -74.667 55 -74c21.333 0 39.666 9.66699 54.999 29c12.667 16.667 19 44.334 19 83.001z" />
    <glyph glyph-name="aring" unicode="&#xe5;" horiz-adv-x="354" 
d="M255 628c0 -22 -8.00098 -40.832 -24.001 -56.499s-35 -23.5 -57 -23.5s-40.833 8 -56.5 24s-23.5 35 -23.5 57s7.83301 40.833 23.5 56.5s34.834 23.5 57.501 23.5c22 0 41 -7.83301 57 -23.5s23.667 -34.834 23 -57.501zM332.999 0.000976562h-98v60
c-22 -46 -56.667 -69 -104 -69c-22 0 -42 5.33301 -60 16c-34.667 20.667 -52 58.667 -52 114c0 44 13.333 79.333 40 106c6.66699 7.33301 14 13.833 22 19.5l35 24l41 27.5c22.667 16 47 36 73 60v17c0 46.667 -20.333 70 -61 70c-12 0 -22.167 -2.16699 -30.5 -6.5
s-14.333 -8.33301 -18 -12s-6.5 -10.167 -8.5 -19.5s-3 -15 -3 -17v-16c0 -8 0.666992 -20.667 2 -38h-73c0 19.333 0.333008 33.666 1 42.999c0.666992 15.333 1.16699 26.5 1.5 33.5s2.5 15.667 6.5 26s9.66699 19.833 17 28.5c24 28 61.667 42 113 42
c44 0 77.667 -12 101 -36c10 -10.667 18.333 -24.667 25 -42c4 -13.333 6 -41.666 6 -84.999v-240c0 -47.333 3 -77 9 -89c1.33301 -3.33301 6.33301 -9 15 -17zM210.999 629.001c0 9.33301 -2.66699 16.833 -8 22.5s-10.5 9.33398 -15.5 11.001s-9.5 2.5 -13.5 2.5
c-5.33301 0 -9.66602 -0.666992 -12.999 -2c-15.333 -6.66699 -23 -18 -23 -34c0 -10.667 3.5 -19.334 10.5 -26.001s15.833 -10 26.5 -10c9.33301 0 17.666 3.5 24.999 10.5s11 15.5 11 25.5zM229.999 162.001v123.001c-6.66699 -6.66699 -16 -15.334 -28 -26.001
c-10.667 -8 -19 -14 -25 -18c-27.333 -20.667 -44.666 -35.334 -51.999 -44.001c-16 -20.667 -24 -45 -24 -73c0 -50 18.333 -74.667 55 -74c21.333 0 39.666 9.66699 54.999 29c12.667 16.667 19 44.334 19 83.001z" />
    <glyph glyph-name="ae" unicode="&#xe6;" horiz-adv-x="542" 
d="M505 145c0 -32.667 -3.66699 -58.6689 -11 -78.002c-7.33301 -20.667 -21.5 -38.5 -42.5 -53.5s-49.833 -22.5 -86.5 -22.5c-44 0 -80.333 15.667 -109 47c-18.667 -17.333 -35.334 -29.5 -50.001 -36.5s-33.334 -10.5 -56.001 -10.5c-30 0 -53.833 6.83301 -71.5 20.5
s-29.834 29.167 -36.501 46.5c-6 14.667 -9 34.667 -9 60c0 42 10.333 75 31 99c5.33301 6.66699 11.666 13 18.999 19s14 11 20 15l29 19.5l35 23.5l69 53v32c0 44 -18.667 66 -56 66c-14 0 -25.667 -3.66699 -35 -11c-15.333 -12.667 -23 -39.667 -23 -81v-16h-73v22
c0 11.333 0.166992 20 0.5 26s1 13.667 2 23s2.66699 17.833 5 25.5s5.16602 14.834 8.49902 21.501c18.667 36 55.334 54 110.001 54c30.667 0 56.334 -5.66699 77.001 -17c8.66699 -6 16 -11.333 22 -16c3.33301 2.66699 7.33301 5.5 12 8.5s7.33398 4.83301 8.00098 5.5
c22 12.667 47.667 19 77 19c30 0 56 -7 78 -21c11.333 -7.33301 20.833 -16.166 28.5 -26.499s13.334 -19.5 17.001 -27.5s6.33398 -20.167 8.00098 -36.5s2.5 -27.333 2.5 -33v-37.5v-91h-195v-111c0 -26.667 6 -45.5 18 -56.5s26.333 -16.5 43 -16.5c12.667 0 23 3 31 9
c17.333 11.333 26 32 26 62c0.666992 6 1 14.667 1 26v13h76v-17zM430 300.998v53.001c0 24 -2 42 -6 54c-8.66699 26 -27.334 39 -56.001 39c-13.333 0 -25 -4 -35 -12c-6 -4.66699 -10.667 -9.83398 -14 -15.501s-5.66602 -13.5 -6.99902 -23.5s-2 -16.333 -2 -19v-23v-53
h120zM236 153.999l-1 115.001c-16 -12 -28.333 -21 -37 -27l-16.5 -11.5l-17 -12c-2.33301 -1.66699 -7 -5.5 -14 -11.5s-11.667 -10.5 -14 -13.5l-10.5 -13.5c-4.66699 -6 -7.66699 -11.5 -9 -16.5s-2.83301 -11 -4.5 -18s-2.5 -14.5 -2.5 -22.5
c0 -19.333 5 -35.5 15 -48.5s24.333 -19.5 43 -19.5c23.333 0 41.333 9.66699 54 29c9.33301 13.333 14 36.666 14 69.999z" />
    <glyph glyph-name="ccedilla" unicode="&#xe7;" horiz-adv-x="354" 
d="M320 172c0 -54 -5.33301 -91.666 -16 -112.999c-23.333 -45.333 -62.666 -68 -117.999 -68l-19 -59c15.333 6.66699 30.333 10 45 10c18.667 0 34.5 -5.83301 47.5 -17.5s19.833 -27.167 20.5 -46.5c0 -21.333 -9.16699 -41.333 -27.5 -60s-44.833 -28.334 -79.5 -29.001
c-23.333 -0.666992 -49.666 6 -78.999 20l12 24c20 -9.33301 38.333 -14 55 -14c18.667 0 32.834 5.33301 42.501 16s14.5 21.667 14.5 33c0.666992 10.667 -2.83301 19.834 -10.5 27.501s-16.834 11.5 -27.501 11.5c-11.333 0 -21.333 -4.33301 -30 -13l-21 7l31 90
c-15.333 2 -28.833 4.66699 -40.5 8s-21.834 8.33301 -30.501 15s-16 13 -22 19s-11 15.333 -15 28s-7 23.5 -9 32.5s-3.5 22.667 -4.5 41s-1.66699 33.666 -2 45.999s-0.5 30.5 -0.5 54.5c0 27.333 0.166992 48.333 0.5 63s1 32.5 2 53.5s2.83301 37 5.5 48
s6.33398 23.667 11.001 38s10.5 25 17.5 32s15.667 14 26 21s22.333 11.833 36 14.5s29.5 4 47.5 4c25.333 0 46.833 -3.33301 64.5 -10s31.167 -14.834 40.5 -24.501s16.666 -23 21.999 -40s8.5 -32.5 9.5 -46.5s1.5 -32 1.5 -54v-15h-76c0 54 -3.33301 87.667 -10 101
c-8 18.667 -25 28.334 -51 29.001c-32 0.666992 -52.333 -15 -61 -47c-4 -15.333 -6 -61 -6 -137v-15c0 -84 1.33301 -131.667 4 -143c0 -11.333 4 -21.666 12 -30.999c10.667 -14.667 26 -22 46 -22c27.333 -0.666992 45.166 8.66602 53.499 27.999s12.5 50 12.5 92v12h76
v-14z" />
    <glyph glyph-name="egrave" unicode="&#xe8;" horiz-adv-x="354" 
d="M228 564h-64l-98 107h109zM318 155c0.666992 -18 0.669922 -32.333 0.00292969 -43s-3.33398 -23.167 -8.00098 -37.5s-11.667 -27.166 -21 -38.499c-24.667 -30 -61.334 -45 -110.001 -45c-60.667 0 -102.334 22.333 -125.001 67c-3.33301 6 -6 12.333 -8 19
s-3.5 12.334 -4.5 17.001s-1.83301 12 -2.5 22l-1.5 22c-0.333008 4.66699 -0.5 14.667 -0.5 30v34c-0.666992 20.667 -1 51.667 -1 93c0 31.333 1.33301 60 4 86c3.33301 27.333 8.33301 48.166 15 62.499s16 26.5 28 36.5c22.667 18.667 53.334 28 92.001 28
c41.333 0 73.333 -9 96 -27c12.667 -9.33301 22.667 -21 30 -35c3.33301 -6 6.16602 -13.167 8.49902 -21.5s4 -15.333 5 -21s1.83301 -14.334 2.5 -26.001s1 -19.167 1 -22.5v-25v-21v-74h-201c-1.33301 -29.333 -1.33301 -58.666 0 -87.999
c0.666992 -22.667 2.33398 -38.334 5.00098 -47.001c8.66699 -29.333 28.667 -44 60 -44c15.333 0 27.666 3.66699 36.999 11c16.667 12.667 24.667 42 24 88h75zM243.003 299l0.000976562 21.001c0 26 -0.333008 45.333 -1 58c-2.66699 46 -23.334 69 -62.001 69
c-25.333 0 -43 -10.667 -53 -32c-6.66699 -14.667 -10 -46.334 -10 -95.001v-21h126z" />
    <glyph glyph-name="eacute" unicode="&#xe9;" horiz-adv-x="354" 
d="M295 671l-98 -107h-64l53 107h109zM318 155c0.666992 -18 0.669922 -32.333 0.00292969 -43s-3.33398 -23.167 -8.00098 -37.5s-11.667 -27.166 -21 -38.499c-24.667 -30 -61.334 -45 -110.001 -45c-60.667 0 -102.334 22.333 -125.001 67c-3.33301 6 -6 12.333 -8 19
s-3.5 12.334 -4.5 17.001s-1.83301 12 -2.5 22l-1.5 22c-0.333008 4.66699 -0.5 14.667 -0.5 30v34c-0.666992 20.667 -1 51.667 -1 93c0 31.333 1.33301 60 4 86c3.33301 27.333 8.33301 48.166 15 62.499s16 26.5 28 36.5c22.667 18.667 53.334 28 92.001 28
c41.333 0 73.333 -9 96 -27c12.667 -9.33301 22.667 -21 30 -35c3.33301 -6 6.16602 -13.167 8.49902 -21.5s4 -15.333 5 -21s1.83301 -14.334 2.5 -26.001s1 -19.167 1 -22.5v-25v-21v-74h-201c-1.33301 -29.333 -1.33301 -58.666 0 -87.999
c0.666992 -22.667 2.33398 -38.334 5.00098 -47.001c8.66699 -29.333 28.667 -44 60 -44c15.333 0 27.666 3.66699 36.999 11c16.667 12.667 24.667 42 24 88h75zM243.003 299l0.000976562 21.001c0 26 -0.333008 45.333 -1 58c-2.66699 46 -23.334 69 -62.001 69
c-25.333 0 -43 -10.667 -53 -32c-6.66699 -14.667 -10 -46.334 -10 -95.001v-21h126z" />
    <glyph glyph-name="ecircumflex" unicode="&#xea;" horiz-adv-x="354" 
d="M314 563h-87l-54 63l-57 -63h-67l102 110h65zM318 155c0.666992 -18 0.669922 -32.333 0.00292969 -43s-3.33398 -23.167 -8.00098 -37.5s-11.667 -27.166 -21 -38.499c-24.667 -30 -61.334 -45 -110.001 -45c-60.667 0 -102.334 22.333 -125.001 67
c-3.33301 6 -6 12.333 -8 19s-3.5 12.334 -4.5 17.001s-1.83301 12 -2.5 22l-1.5 22c-0.333008 4.66699 -0.5 14.667 -0.5 30v34c-0.666992 20.667 -1 51.667 -1 93c0 31.333 1.33301 60 4 86c3.33301 27.333 8.33301 48.166 15 62.499s16 26.5 28 36.5
c22.667 18.667 53.334 28 92.001 28c41.333 0 73.333 -9 96 -27c12.667 -9.33301 22.667 -21 30 -35c3.33301 -6 6.16602 -13.167 8.49902 -21.5s4 -15.333 5 -21s1.83301 -14.334 2.5 -26.001s1 -19.167 1 -22.5v-25v-21v-74h-201
c-1.33301 -29.333 -1.33301 -58.666 0 -87.999c0.666992 -22.667 2.33398 -38.334 5.00098 -47.001c8.66699 -29.333 28.667 -44 60 -44c15.333 0 27.666 3.66699 36.999 11c16.667 12.667 24.667 42 24 88h75zM243.003 299l0.000976562 21.001c0 26 -0.333008 45.333 -1 58
c-2.66699 46 -23.334 69 -62.001 69c-25.333 0 -43 -10.667 -53 -32c-6.66699 -14.667 -10 -46.334 -10 -95.001v-21h126z" />
    <glyph glyph-name="edieresis" unicode="&#xeb;" horiz-adv-x="354" 
d="M294 563h-78v103h78v-103zM140 563h-79v103h79v-103zM318 155c0.666992 -18 0.669922 -32.333 0.00292969 -43s-3.33398 -23.167 -8.00098 -37.5s-11.667 -27.166 -21 -38.499c-24.667 -30 -61.334 -45 -110.001 -45c-60.667 0 -102.334 22.333 -125.001 67
c-3.33301 6 -6 12.333 -8 19s-3.5 12.334 -4.5 17.001s-1.83301 12 -2.5 22l-1.5 22c-0.333008 4.66699 -0.5 14.667 -0.5 30v34c-0.666992 20.667 -1 51.667 -1 93c0 31.333 1.33301 60 4 86c3.33301 27.333 8.33301 48.166 15 62.499s16 26.5 28 36.5
c22.667 18.667 53.334 28 92.001 28c41.333 0 73.333 -9 96 -27c12.667 -9.33301 22.667 -21 30 -35c3.33301 -6 6.16602 -13.167 8.49902 -21.5s4 -15.333 5 -21s1.83301 -14.334 2.5 -26.001s1 -19.167 1 -22.5v-25v-21v-74h-201
c-1.33301 -29.333 -1.33301 -58.666 0 -87.999c0.666992 -22.667 2.33398 -38.334 5.00098 -47.001c8.66699 -29.333 28.667 -44 60 -44c15.333 0 27.666 3.66699 36.999 11c16.667 12.667 24.667 42 24 88h75zM243.003 299l0.000976562 21.001c0 26 -0.333008 45.333 -1 58
c-2.66699 46 -23.334 69 -62.001 69c-25.333 0 -43 -10.667 -53 -32c-6.66699 -14.667 -10 -46.334 -10 -95.001v-21h126z" />
    <glyph glyph-name="igrave" unicode="&#xec;" horiz-adv-x="167" 
d="M134 564h-64l-98 107h109zM123 0h-79v500h79v-500z" />
    <glyph glyph-name="iacute" unicode="&#xed;" horiz-adv-x="167" 
d="M201 671l-97 -107h-65l53 107h109zM123 0h-79v500h79v-500z" />
    <glyph glyph-name="icircumflex" unicode="&#xee;" horiz-adv-x="167" 
d="M220 563h-87l-53 63l-58 -63h-67l102 110h65zM123 0h-79v500h79v-500z" />
    <glyph glyph-name="idieresis" unicode="&#xef;" horiz-adv-x="167" 
d="M200 563h-77v103h77v-103zM46 563h-79v103h79v-103zM123 0h-79v500h79v-500z" />
    <glyph glyph-name="eth" unicode="&#xf0;" horiz-adv-x="354" 
d="M334 622l-55.9932 -16.998c13.333 -24 20 -40.667 20 -50c6.66699 -16.667 11.667 -37.834 15 -63.501s5.16602 -49.167 5.49902 -70.5s0.5 -56 0.5 -104v-29c0 -37.333 -1 -79.333 -3 -126c-0.666992 -28 -2.33398 -50 -5.00098 -66s-8.33398 -33 -17.001 -51
s-22.5 -31.333 -41.5 -40s-43.5 -13.334 -73.5 -14.001c-15.333 0 -29.5 1.16699 -42.5 3.5s-24 5.66602 -33 9.99902s-17.333 10 -25 17s-13.834 13.5 -18.501 19.5s-8.66699 13.667 -12 23s-5.83301 17.166 -7.5 23.499s-2.83398 14.333 -3.50098 24s-1 16.667 -1 21v18
v12.5v67c0 86 1.33301 139.333 4 160c2.66699 14.667 5.33398 26.334 8.00098 35.001c9.33301 27.333 23.333 48 42 62c20 16 43.667 24 71 24c29.333 0 55.666 -14 78.999 -42c-9.33301 56.667 -19.333 95 -30 115l-110 -34l-16 46l97 30
c-16.667 20 -37.334 38.667 -62.001 56l67 28c25.333 -19.333 43.666 -36.666 54.999 -51.999l7 -10l69 22zM235.007 246.002l0.000976562 47.002c0 60.667 -2.66699 99 -8 115c-8 24.667 -24 36.667 -48 36c-23.333 0 -40.333 -12 -51 -36c-5.33301 -12 -8 -54.333 -8 -127
c0 -97.333 0.666992 -154 2 -170c1.33301 -13.333 3.66602 -23 6.99902 -29c10.667 -19.333 25.667 -29 45 -29c36.667 0 56 26.667 58 80c0.666992 3.33301 1 7.66602 1 12.999v6c1.33301 23.333 2 54.666 2 93.999z" />
    <glyph glyph-name="ntilde" unicode="&#xf1;" 
d="M314 658c-0.666992 -14 -2.33594 -25.3311 -5.00293 -33.998c-2 -6.66699 -5 -13.334 -9 -20.001s-11.5 -14.167 -22.5 -22.5s-23.833 -12.5 -38.5 -12.5c-7.33301 0 -15.166 1 -23.499 3s-19.666 5.83301 -33.999 11.5s-21.833 8.5 -22.5 8.5
c-17.333 5.33301 -28.666 8 -33.999 8c-3.33301 0 -6.5 -0.5 -9.5 -1.5s-5.33301 -2.33301 -7 -4s-3.16699 -3.33398 -4.5 -5.00098s-2.33301 -3.66699 -3 -6s-1.16699 -4.16602 -1.5 -5.49902l-1.5 -6v-3h-36c0 29.333 9.33301 52.666 28 69.999c8 8 16 13.333 24 16
c8.66699 2.66699 16.667 4 24 4c13.333 0 38.333 -7 75 -21c17.333 -6.66699 30.333 -10 39 -10c17.333 0 26 10 26 30h36zM330.998 0.00195312l-80.999 -0.000976562v366c0 53.333 -19.667 80 -59 80c-29.333 0 -49.333 -14 -60 -42c-4.66699 -11.333 -7 -38.333 -7 -81
v-323h-80v500h76v-46c0.666992 0.666992 3 3.5 7 8.5s7.33301 8.83301 10 11.5c27.333 23.333 57.666 35 90.999 35c40 0 68.667 -14.333 86 -43c7.33301 -12 12 -25.667 14 -41s3 -39.666 3 -72.999v-352z" />
    <glyph glyph-name="ograve" unicode="&#xf2;" horiz-adv-x="354" 
d="M228 564h-64l-98 107h109zM318 245c0 -42.667 -0.666016 -74.668 -1.99902 -96.001c-0.666992 -24.667 -2.33398 -43.334 -5.00098 -56.001c-11.333 -68 -56.666 -102 -135.999 -102c-56.667 0 -96 18.333 -118 55c-14 24.667 -21 63 -21 115v65
c0 58 0.666992 101.333 2 130c1.33301 54.667 13.333 93.667 36 117c21.333 24 57 36 107 36c25.333 0 47.166 -4.33301 65.499 -13s32 -18.167 41 -28.5s16 -24.166 21 -41.499s7.83301 -30.166 8.5 -38.499s1 -19.166 1 -32.499
c0.666992 -36.667 0.666992 -73.334 0 -110.001zM235.001 245.999c0 48.667 -0.332031 85.333 -0.999023 110c-0.666992 12.667 -1.33398 22.667 -2.00098 30s-2.66699 16.333 -6 27s-8.83301 18.5 -16.5 23.5s-17.5 7.5 -29.5 7.5c-29.333 0 -47.666 -15.667 -54.999 -47
c-3.33301 -14 -5 -55.333 -5 -124c0 -13.333 0.166992 -33.5 0.5 -60.5s0.5 -47.167 0.5 -60.5c0 -32 1.66699 -53 5 -63c7.33301 -23.333 23.666 -35 48.999 -35c30 0 48.333 17.333 55 52c3.33301 19.333 5 66 5 140z" />
    <glyph glyph-name="oacute" unicode="&#xf3;" horiz-adv-x="354" 
d="M295 671l-98 -107h-64l53 107h109zM318 245c0 -42.667 -0.666016 -74.668 -1.99902 -96.001c-0.666992 -24.667 -2.33398 -43.334 -5.00098 -56.001c-11.333 -68 -56.666 -102 -135.999 -102c-56.667 0 -96 18.333 -118 55c-14 24.667 -21 63 -21 115v65
c0 58 0.666992 101.333 2 130c1.33301 54.667 13.333 93.667 36 117c21.333 24 57 36 107 36c25.333 0 47.166 -4.33301 65.499 -13s32 -18.167 41 -28.5s16 -24.166 21 -41.499s7.83301 -30.166 8.5 -38.499s1 -19.166 1 -32.499
c0.666992 -36.667 0.666992 -73.334 0 -110.001zM235.001 245.999c0 48.667 -0.332031 85.333 -0.999023 110c-0.666992 12.667 -1.33398 22.667 -2.00098 30s-2.66699 16.333 -6 27s-8.83301 18.5 -16.5 23.5s-17.5 7.5 -29.5 7.5c-29.333 0 -47.666 -15.667 -54.999 -47
c-3.33301 -14 -5 -55.333 -5 -124c0 -13.333 0.166992 -33.5 0.5 -60.5s0.5 -47.167 0.5 -60.5c0 -32 1.66699 -53 5 -63c7.33301 -23.333 23.666 -35 48.999 -35c30 0 48.333 17.333 55 52c3.33301 19.333 5 66 5 140z" />
    <glyph glyph-name="ocircumflex" unicode="&#xf4;" horiz-adv-x="354" 
d="M314 563h-87l-54 63l-57 -63h-67l102 110h65zM318 245c0 -42.667 -0.666016 -74.668 -1.99902 -96.001c-0.666992 -24.667 -2.33398 -43.334 -5.00098 -56.001c-11.333 -68 -56.666 -102 -135.999 -102c-56.667 0 -96 18.333 -118 55c-14 24.667 -21 63 -21 115v65
c0 58 0.666992 101.333 2 130c1.33301 54.667 13.333 93.667 36 117c21.333 24 57 36 107 36c25.333 0 47.166 -4.33301 65.499 -13s32 -18.167 41 -28.5s16 -24.166 21 -41.499s7.83301 -30.166 8.5 -38.499s1 -19.166 1 -32.499
c0.666992 -36.667 0.666992 -73.334 0 -110.001zM235.001 245.999c0 48.667 -0.332031 85.333 -0.999023 110c-0.666992 12.667 -1.33398 22.667 -2.00098 30s-2.66699 16.333 -6 27s-8.83301 18.5 -16.5 23.5s-17.5 7.5 -29.5 7.5c-29.333 0 -47.666 -15.667 -54.999 -47
c-3.33301 -14 -5 -55.333 -5 -124c0 -13.333 0.166992 -33.5 0.5 -60.5s0.5 -47.167 0.5 -60.5c0 -32 1.66699 -53 5 -63c7.33301 -23.333 23.666 -35 48.999 -35c30 0 48.333 17.333 55 52c3.33301 19.333 5 66 5 140z" />
    <glyph glyph-name="otilde" unicode="&#xf5;" horiz-adv-x="354" 
d="M304 658c-0.666992 -14 -2.33496 -25.3301 -5.00195 -33.9971c-2 -6.66699 -5 -13.334 -9 -20.001s-11.5 -14.167 -22.5 -22.5s-23.833 -12.5 -38.5 -12.5c-7.33301 0 -15.666 1.33301 -24.999 4s-20 6.16699 -32 10.5s-19.667 7.16602 -23 8.49902
c-15.333 5.33301 -26.666 8 -33.999 8c-3.33301 0 -6.5 -0.5 -9.5 -1.5s-5.33301 -2.33301 -7 -4s-3.16699 -3.33398 -4.5 -5.00098s-2.33301 -3.66699 -3 -6s-1.16699 -4.16602 -1.5 -5.49902l-1.5 -6v-3h-36c0 29.333 9 52.666 27 69.999
c9.33301 8 17.666 13.333 24.999 16c8 2.66699 15.667 4 23 4c14 0 39.333 -7 76 -21c17.333 -6.66699 30.333 -10 39 -10c14.667 0 23.334 10 26.001 30h36zM317.999 245.003c0 -42.667 -0.666016 -74.668 -1.99902 -96.001
c-0.666992 -24.667 -2.33398 -43.334 -5.00098 -56.001c-11.333 -68 -56.666 -102 -135.999 -102c-56.667 0 -96 18.333 -118 55c-14 24.667 -21 63 -21 115v65c0 58 0.666992 101.333 2 130c1.33301 54.667 13.333 93.667 36 117c21.333 24 57 36 107 36
c25.333 0 47.166 -4.33301 65.499 -13s32 -18.167 41 -28.5s16 -24.166 21 -41.499s7.83301 -30.166 8.5 -38.499s1 -19.166 1 -32.499c0.666992 -36.667 0.666992 -73.334 0 -110.001zM235 246.002c0 48.667 -0.332031 85.333 -0.999023 110
c-0.666992 12.667 -1.33398 22.667 -2.00098 30s-2.66699 16.333 -6 27s-8.83301 18.5 -16.5 23.5s-17.5 7.5 -29.5 7.5c-29.333 0 -47.666 -15.667 -54.999 -47c-3.33301 -14 -5 -55.333 -5 -124c0 -13.333 0.166992 -33.5 0.5 -60.5s0.5 -47.167 0.5 -60.5
c0 -32 1.66699 -53 5 -63c7.33301 -23.333 23.666 -35 48.999 -35c30 0 48.333 17.333 55 52c3.33301 19.333 5 66 5 140z" />
    <glyph glyph-name="odieresis" unicode="&#xf6;" horiz-adv-x="354" 
d="M293 563h-77v103h77v-103zM139 563h-78v103h78v-103zM318 245c0 -42.667 -0.666016 -74.668 -1.99902 -96.001c-0.666992 -24.667 -2.33398 -43.334 -5.00098 -56.001c-11.333 -68 -56.666 -102 -135.999 -102c-56.667 0 -96 18.333 -118 55c-14 24.667 -21 63 -21 115
v65c0 58 0.666992 101.333 2 130c1.33301 54.667 13.333 93.667 36 117c21.333 24 57 36 107 36c25.333 0 47.166 -4.33301 65.499 -13s32 -18.167 41 -28.5s16 -24.166 21 -41.499s7.83301 -30.166 8.5 -38.499s1 -19.166 1 -32.499
c0.666992 -36.667 0.666992 -73.334 0 -110.001zM235.001 245.999c0 48.667 -0.332031 85.333 -0.999023 110c-0.666992 12.667 -1.33398 22.667 -2.00098 30s-2.66699 16.333 -6 27s-8.83301 18.5 -16.5 23.5s-17.5 7.5 -29.5 7.5c-29.333 0 -47.666 -15.667 -54.999 -47
c-3.33301 -14 -5 -55.333 -5 -124c0 -13.333 0.166992 -33.5 0.5 -60.5s0.5 -47.167 0.5 -60.5c0 -32 1.66699 -53 5 -63c7.33301 -23.333 23.666 -35 48.999 -35c30 0 48.333 17.333 55 52c3.33301 19.333 5 66 5 140z" />
    <glyph glyph-name="divide" unicode="&#xf7;" horiz-adv-x="559" 
d="M322 393h-83v102h82zM480 261h-401v73h401v-73zM322 99h-83v102h83v-102z" />
    <glyph glyph-name="oslash" unicode="&#xf8;" horiz-adv-x="354" 
d="M328 489l-26.999 -45c0 -1.33301 0.833008 -4.16602 2.5 -8.49902l4.5 -11.5c6.66699 -26 10 -71.333 10 -136c0 -61.333 -0.666992 -107.333 -2 -138c-1.33301 -60 -14 -101.667 -38 -125c-22.667 -22.667 -56.334 -34 -101.001 -34c-38 0 -68.667 8.33301 -92 25
c-4.66699 3.33301 -11 9 -19 17l-21 -42l-31 22l31 57c-5.33301 22.667 -8.33301 52.334 -9 89.001c-0.666992 14 -1 35 -1 63c0 27.333 0.666992 67.666 2 120.999c0 60.667 12.333 104 37 130c23.333 24 59 36 107 36c36 0 63.667 -7 83 -21
c1.33301 -0.666992 6.33301 -4.33398 15 -11.001l22 34zM231.001 393c0 4.66699 -1.66895 11.002 -5.00195 19.002c-8 22 -24 32.667 -48 32c-20 0 -35.333 -8.66699 -46 -26c-1.33301 -2.66699 -2.66602 -5.83398 -3.99902 -9.50098s-2.5 -7.83398 -3.5 -12.501
s-1.83301 -9.16699 -2.5 -13.5s-1.16699 -10 -1.5 -17s-0.666016 -12.833 -0.999023 -17.5s-0.5 -11.5 -0.5 -20.5v-21v-23v-23.5v-62zM234.999 281.002c0 20 -0.333984 35 -1.00098 45l-112 -198c0 -16 0.666992 -27 2 -33c6.66699 -27.333 23.334 -41 50.001 -41
c33.333 0 52.333 19.667 57 59c2.66699 18 4 74 4 168z" />
    <glyph glyph-name="ugrave" unicode="&#xf9;" 
d="M238 564h-64l-98 107h109zM331 0l-76.9971 -0.000976562l-1 46c-28.667 -36.667 -64 -55 -106 -55c-25.333 0 -47 7.33301 -65 22c-12.667 10.667 -21.834 25 -27.501 43s-8.83398 34 -9.50098 48s-1 41.333 -1 82v314h80v-328c0 -18.667 0.333008 -32.667 1 -42
c0 -20.667 2.33301 -36 7 -46c9.33301 -22 26.666 -33 51.999 -33c15.333 0 28.333 4.33301 39 13c12 9.33301 19.833 21.833 23.5 37.5s5.5 39.834 5.5 72.501v326h79v-500z" />
    <glyph glyph-name="uacute" unicode="&#xfa;" 
d="M306 671l-98 -107h-64l52 107h110zM331 0l-76.9971 -0.000976562l-1 46c-28.667 -36.667 -64 -55 -106 -55c-25.333 0 -47 7.33301 -65 22c-12.667 10.667 -21.834 25 -27.501 43s-8.83398 34 -9.50098 48s-1 41.333 -1 82v314h80v-328c0 -18.667 0.333008 -32.667 1 -42
c0 -20.667 2.33301 -36 7 -46c9.33301 -22 26.666 -33 51.999 -33c15.333 0 28.333 4.33301 39 13c12 9.33301 19.833 21.833 23.5 37.5s5.5 39.834 5.5 72.501v326h79v-500z" />
    <glyph glyph-name="ucircumflex" unicode="&#xfb;" 
d="M324 563h-87l-53 63l-58 -63h-67l102 110h65zM331 0l-76.9971 -0.000976562l-1 46c-28.667 -36.667 -64 -55 -106 -55c-25.333 0 -47 7.33301 -65 22c-12.667 10.667 -21.834 25 -27.501 43s-8.83398 34 -9.50098 48s-1 41.333 -1 82v314h80v-328
c0 -18.667 0.333008 -32.667 1 -42c0 -20.667 2.33301 -36 7 -46c9.33301 -22 26.666 -33 51.999 -33c15.333 0 28.333 4.33301 39 13c12 9.33301 19.833 21.833 23.5 37.5s5.5 39.834 5.5 72.501v326h79v-500z" />
    <glyph glyph-name="udieresis" unicode="&#xfc;" 
d="M306 563h-77v103h77v-103zM152 563h-79v103h79v-103zM331 0l-76.9971 -0.000976562l-1 46c-28.667 -36.667 -64 -55 -106 -55c-25.333 0 -47 7.33301 -65 22c-12.667 10.667 -21.834 25 -27.501 43s-8.83398 34 -9.50098 48s-1 41.333 -1 82v314h80v-328
c0 -18.667 0.333008 -32.667 1 -42c0 -20.667 2.33301 -36 7 -46c9.33301 -22 26.666 -33 51.999 -33c15.333 0 28.333 4.33301 39 13c12 9.33301 19.833 21.833 23.5 37.5s5.5 39.834 5.5 72.501v326h79v-500z" />
    <glyph glyph-name="yacute" unicode="&#xfd;" horiz-adv-x="333" 
d="M285 671l-98 -107h-64l53 107h109zM320 500l-86.002 -436c-1.33301 -8 -4.16602 -23.833 -8.49902 -47.5s-7.33301 -39 -9 -46s-4.83398 -18.667 -9.50098 -35s-9.16699 -28 -13.5 -35s-10.166 -15 -17.499 -24s-16 -16.833 -26 -23.5c-16 -10.667 -42 -16 -78 -16h-52
v69c2 0 5.66699 -0.166992 11 -0.5s9.33301 -0.5 12 -0.5c10.667 0 18.5 0.166992 23.5 0.5s12.333 1.33301 22 3s16.834 4.5 21.501 8.5s9 10 13 18s6 17.667 6 29c0 14 -3.33301 34.333 -10 61l-113 475h86l79 -402l64 402h85z" />
    <glyph glyph-name="thorn" unicode="&#xfe;" 
d="M339 290c0 -133.333 -6.66797 -213.001 -20.001 -239.001c-17.333 -36 -48.666 -56 -93.999 -60c-40 -1.33301 -73 15.667 -99 51v-201h-82v865h79v-254c8.66699 11.333 16.334 20.333 23.001 27s17.167 13.334 31.5 20.001s30.166 10 47.499 10c28 0 52.333 -9 73 -27
c13.333 -12 23 -28.167 29 -48.5s9.5 -39.5 10.5 -57.5s1.5 -46.667 1.5 -86zM255.999 260.999c0 10 -0.162109 24.3369 -0.495117 43.0039s-0.5 33 -0.5 43s-0.166992 17.5 -0.5 22.5s-1.66602 13 -3.99902 24s-5.33301 19.667 -9 26s-9.33398 12.166 -17.001 17.499
s-16.834 8 -27.501 8c-8.66699 0 -16.334 -1 -23.001 -3s-12.334 -5.66699 -17.001 -11s-8.83398 -10.5 -12.501 -15.5s-6.5 -11.667 -8.5 -20s-3.83301 -15.333 -5.5 -21s-2.66699 -13.334 -3 -23.001s-0.5 -16.5 -0.5 -20.5v-19.5v-14.5v-35
c0 -95.333 3.33301 -151 10 -167c11.333 -28.667 30.333 -43.334 57 -44.001c9.33301 0 17.333 1.33301 24 4s12.167 7 16.5 13s7.83301 11.667 10.5 17s4.66699 12.666 6 21.999s2.16602 16.333 2.49902 21s0.5 11.667 0.5 21v16c0.666992 12 1.16699 28 1.5 48
s0.5 36 0.5 48z" />
    <glyph glyph-name="ydieresis" unicode="&#xff;" horiz-adv-x="333" 
d="M283 563h-77v103h77v-103zM129 563h-78v103h78v-103zM320 500l-85.999 -435.999c-1.33301 -6 -3.16602 -15 -5.49902 -27s-4.16602 -21 -5.49902 -27c-4.66699 -23.333 -8.33398 -40.833 -11.001 -52.5s-8 -26.834 -16 -45.501s-17.667 -33.667 -29 -45
c-20.667 -20 -52.334 -30 -95.001 -30h-52v69c18 -0.666992 35.667 -0.666992 53 0c9.33301 1.33301 17.166 2.83301 23.499 4.5s13.333 7 21 16s11.5 21.5 11.5 37.5c0 12.667 -3.33301 33 -10 61l-113 475h86l79 -402l64 402h85z" />
    <glyph glyph-name="OE" unicode="&#x152;" horiz-adv-x="646" 
d="M626 0h-256c-8 -0 -32 -1.66699 -72 -5c-48 -3.33301 -76.333 -5 -85 -5c-44 0 -79.333 11.333 -106 34c-26.667 21.333 -44.334 55 -53.001 101c-6.66699 36.667 -10 92.334 -10 167.001c0 95.333 1.33301 167.666 4 216.999c1.33301 28.667 2.83301 50 4.5 64
s6.66699 31.167 15 51.5s20.166 37.5 35.499 51.5c30.667 27.333 71.334 41 122.001 41c12 0 29.333 -1.33301 52 -4c4 0 10.5 -0.5 19.5 -1.5s15.833 -1.83301 20.5 -2.5c18.667 -2 37.334 -3 56.001 -3h242v-79h-209v-210h178v-80h-178v-258h220v-79zM321 247
l-0.00195312 229c0 43.333 -0.333008 69.333 -1 78c-3.33301 35.333 -14.666 60 -33.999 74c-13.333 9.33301 -31 14 -53 14c-37.333 0 -63.666 -14.333 -78.999 -43c-6 -11.333 -10.5 -26.5 -13.5 -45.5s-4.66699 -36.833 -5 -53.5s-0.5 -43 -0.5 -79v-69
c0 -66 0.666992 -115.667 2 -149c0.666992 -48 6.66699 -81.667 18 -101c15.333 -24 41.333 -36 78 -36c28 0 49 8 63 24c8 9.33301 13.667 20 17 32c5.33301 19.333 8 61 8 125z" />
    <glyph glyph-name="oe" unicode="&#x153;" horiz-adv-x="542" 
d="M506 163c0 -4 -0.167969 -9.49805 -0.500977 -16.498s-0.5 -12.167 -0.5 -15.5c-3.33301 -61.333 -22.666 -102 -57.999 -122c-20.667 -12 -45.667 -18 -75 -18c-35.333 0 -67.666 13.667 -96.999 41c-3.33301 -3.33301 -9 -8.33301 -17 -15c-24 -17.333 -54 -26 -90 -26
c-43.333 0 -77.333 14 -102 42c-8 9.33301 -13.333 18.333 -16 27c-9.33301 23.333 -14 86.333 -14 189c0 19.333 0.666992 47.666 2 84.999c0 18.667 0.333008 32.667 1 42c5.33301 62 28 101.667 68 119c22.667 9.33301 46 14 70 14c33.333 0 66.333 -12.333 99 -37
c29.333 24.667 61 37 95 37c32 0 59.667 -8.33301 83 -25c16 -12 28 -27 36 -45s12.667 -33.833 14 -47.5s2 -32.5 2 -56.5v-97h-194v-33c0 -64.667 1.33301 -101.667 4 -111c8 -26.667 27 -40 57 -40c15.333 0 27.333 4.33301 36 13c9.33301 8 15.166 18.667 17.499 32
s3.83301 34.666 4.5 63.999h75zM429.999 303.002c0 64 -4 102.667 -12 116c-10 16.667 -26.333 25 -49 25c-12 0 -22.333 -3 -31 -9c-17.333 -12 -26 -41 -26 -87v-45h118zM237.999 247.002c0.666992 22 0.333984 55.666 -0.999023 100.999
c0 26.667 -1.66699 45.334 -5 56.001c-9.33301 28 -27.666 42 -54.999 42c-30.667 0 -49 -18.333 -55 -55c-4 -32 -6 -76.333 -6 -133c0 -49.333 0.666992 -86.333 2 -111c0.666992 -34 5 -57.333 13 -70c9.33301 -16 24.666 -24 45.999 -24c16 0 28.667 5 38 15
c3.33301 4 6.33301 8.5 9 13.5s4.66699 9.5 6 13.5s2.33301 10.167 3 18.5s1.16699 14.833 1.5 19.5s0.666016 13 0.999023 25s0.5 21 0.5 27c1.33301 28 2 48.667 2 62z" />
    <glyph glyph-name="Scaron" unicode="&#x160;" horiz-adv-x="396" 
d="M331 871l-102 -107h-65l-98 107h87l54 -63l57 63h67zM371 159c0 -35.333 -6.33105 -65.168 -18.998 -89.501s-29 -41.666 -49 -51.999s-38 -17.5 -54 -21.5s-32.333 -6 -49 -6c-92 0 -147.333 37.333 -166 112c-4.66699 18 -7 39.333 -7 64v78h83v-56
c0 -14.667 0.333008 -26.334 1 -35.001c4.66699 -59.333 34.334 -88.666 89.001 -87.999c13.333 0.666992 25.666 2.83398 36.999 6.50098s22.5 12.834 33.5 27.501s16.167 34 15.5 58s-5.66699 43.833 -15 59.5s-26.333 36.167 -51 61.5l-95 98
c-15.333 16 -26.5 28.333 -33.5 37s-15 20.5 -24 35.5s-15.167 31.167 -18.5 48.5s-5 37.666 -5 60.999c0 18 2 35 6 51s11.167 32.833 21.5 50.5s27.166 31.667 50.499 42s52 15.5 86 15.5s61.833 -5.33301 83.5 -16s36.834 -25.334 45.501 -44.001
s14.167 -34.667 16.5 -48s3.5 -29 3.5 -47v-64h-78l-1 37c-0.666992 28.667 -2.83398 49.834 -6.50098 63.501s-12.5 24.834 -26.5 33.501c-12 7.33301 -26.667 10.666 -44 9.99902c-48 -1.33301 -72 -29.333 -72 -84c0 -18 4.5 -36 13.5 -54s27.833 -42.333 56.5 -73
l81 -85c27.333 -28 46.666 -50.167 57.999 -66.5s20 -36.833 26 -61.5c4.66699 -18.667 7 -38.334 7 -59.001z" />
    <glyph glyph-name="scaron" unicode="&#x161;" horiz-adv-x="313" 
d="M290 673l-102 -109h-65l-98 109h87l54 -63l57 63h67zM295 122c-1.33301 -34 -12.6641 -64.333 -33.9971 -91s-58.333 -40 -111 -40c-37.333 0 -66.333 8 -87 24c-8 6 -14.667 13 -20 21s-9.5 15.167 -12.5 21.5s-5.5 15.666 -7.5 27.999s-3.16699 21.166 -3.5 26.499
s-0.833008 15.833 -1.5 31.5s-1 25.5 -1 29.5h77v-8c0 -28 1.33301 -48.833 4 -62.5s9 -24.834 19 -33.501s22.667 -13 38 -13c17.333 -0.666992 31.5 4.83301 42.5 16.5s16.5 26.5 16.5 44.5c0 18.667 -3.5 33.334 -10.5 44.001s-20.833 25 -41.5 43l-62 54
c-26 22.667 -44 42.5 -54 59.5s-15 38.167 -15 63.5c0 28 4.66699 51.333 14 70s21.666 31.834 36.999 39.501s29.166 12.667 41.499 15s25.166 3.5 38.499 3.5c27.333 0 49.666 -5 66.999 -15c22.667 -12 37.334 -28.333 44.001 -49s10 -51.334 10 -92.001h-71v15
c0 10.667 -0.333008 19.167 -1 25.5s-2.33398 14 -5.00098 23s-7.83398 16 -15.501 21s-17.5 7.5 -29.5 7.5c-36.667 0 -55 -18.333 -55 -55c0 -11.333 3.5 -22.666 10.5 -33.999s13.667 -19.833 20 -25.5s16.833 -14.5 31.5 -26.5l57 -47
c14.667 -12.667 26.334 -23.667 35.001 -33s16.834 -23.166 24.501 -41.499s11.167 -38.5 10.5 -60.5z" />
    <glyph glyph-name="Ydieresis" unicode="&#x178;" horiz-adv-x="396" 
d="M329 764h-83v107h83v-107zM151 764h-83v107h83v-107zM396 706l-155 -420v-286h-91v286l-150 420h93l105 -353l105 353h93z" />
    <glyph glyph-name="florin" unicode="&#x192;" horiz-adv-x="271" 
d="M267 714l-7.00391 -70.001c-1.33301 0.666992 -3.33301 1 -6 1h-2c-10 0 -18.5 -1.33301 -25.5 -4s-12.333 -5.66699 -16 -9s-6.66699 -9 -9 -17s-3.83301 -14.167 -4.5 -18.5s-1.66699 -12.166 -3 -23.499l-8 -73h71l-8 -60h-69l-42 -404
c-3.33301 -34 -6.16602 -58.333 -8.49902 -73s-7.16602 -31 -14.499 -49s-17.333 -31.333 -30 -40c-15.333 -10.667 -38.666 -16 -69.999 -16c-13.333 0 -27.666 1.66699 -42.999 5l7 68c13.333 -2 22.333 -3 27 -3c14 0 24.833 5 32.5 15s12.5 20.167 14.5 30.5
s4.33301 27.833 7 52.5c0.666992 4 1 7 1 9l41 405h-61l7 60h61l11 113c1.33301 12 2.33301 20.667 3 26s3.16699 14 7.5 26s9.83301 21 16.5 27s16.667 11.667 30 17s29.333 8 48 8c8 0 22 -1 42 -3z" />
    <glyph glyph-name="circumflex" unicode="&#x2c6;" horiz-adv-x="229" 
d="M247 563h-87l-54 63l-57 -63h-67l102 110h65z" />
    <glyph glyph-name="tilde" unicode="&#x2dc;" horiz-adv-x="229" 
d="M241 658c-2 -18.667 -3.66602 -29.999 -4.99902 -33.999c-2 -6.66699 -5 -13.334 -9 -20.001s-11.5 -14.167 -22.5 -22.5s-23.833 -12.5 -38.5 -12.5c-7.33301 0 -15.666 1.16699 -24.999 3.5s-20.333 6 -33 11s-20 7.83301 -22 8.5c-16 5.33301 -27.333 8 -34 8
c-18 0 -27 -10.333 -27 -31h-36c0 30 8.66699 53.333 26 70c9.33301 8 17.666 13.333 24.999 16c8 2.66699 15.667 4 23 4c15.333 0 40.666 -7 75.999 -21c18 -6.66699 31 -10 39 -10c17.333 0 26 10 26 30h37z" />
    <glyph glyph-name="endash" unicode="&#x2013;" horiz-adv-x="371" 
d="M346 253h-321v78h321v-78z" />
    <glyph glyph-name="emdash" unicode="&#x2014;" horiz-adv-x="567" 
d="M542 253h-517v78h517v-78z" />
    <glyph glyph-name="quoteleft" unicode="&#x2018;" horiz-adv-x="167" 
d="M126 452l-84.998 0.00195312v121c0 37.333 6 67.166 18 89.499s34.333 36.833 67 43.5v-51c-4.66699 -1.33301 -8.83398 -2.83301 -12.501 -4.5s-6.83398 -4 -9.50098 -7l-6.5 -7.5c-1.66699 -2 -3.16699 -5.33301 -4.5 -10s-2.33301 -8 -3 -10
s-1.16699 -5.83301 -1.5 -11.5s-0.5 -9.33398 -0.5 -11.001v-12.5v-11h38v-118z" />
    <glyph glyph-name="quoteright" unicode="&#x2019;" horiz-adv-x="167" 
d="M126 585c0 -38 -5.83301 -68 -17.5 -90s-34.167 -36.333 -67.5 -43v51c25.333 6.66699 38 29 38 67c0 8.66699 -0.333008 15 -1 19h-37v117h85v-121z" />
    <glyph glyph-name="quotesinglbase" unicode="&#x201a;" horiz-adv-x="167" 
d="M126 -4c0 -37.333 -6 -67.167 -18 -89.5s-34.333 -36.833 -67 -43.5v52c25.333 6 38 28.333 38 67c0 8 -0.333008 14 -1 18h-37v118h85v-122z" />
    <glyph glyph-name="quotedblleft" unicode="&#x201c;" horiz-adv-x="313" 
d="M272 452l-85 -0.00195312c0 13.333 -0.166992 33.5 -0.5 60.5s-0.5 47.167 -0.5 60.5c0 24 2 44.333 6 61s12.667 31.834 26 45.501s31.333 22.5 54 26.5v-51c-9.33301 -2.66699 -16.833 -6.66699 -22.5 -12s-9.5 -13.166 -11.5 -23.499s-3.16699 -17.833 -3.5 -22.5
s-0.5 -13.667 -0.5 -27h38v-118zM126 451.998l-85 0.00195312v121c0 37.333 6 67.166 18 89.499s34.333 36.833 67 43.5v-51c-25.333 -6.66699 -38 -26.334 -38 -59.001v-26h38v-118z" />
    <glyph glyph-name="quotedblright" unicode="&#x201d;" horiz-adv-x="313" 
d="M272 585c0 -37.333 -6 -67.167 -18 -89.5s-34.333 -36.833 -67 -43.5v51c4.66699 0.666992 9 2.66699 13 6s7.33301 6.5 10 9.5s5 6.5 7 10.5s3.5 7.33301 4.5 10s1.66699 6.66699 2 12s0.5 9 0.5 11v13v13h-37v118h85v-121zM126 584.999
c0 -38 -5.83301 -67.999 -17.5 -89.999s-34.167 -36.333 -67.5 -43v51c25.333 9.33301 38 31.666 38 66.999c0 8 -0.333008 14 -1 18h-37v118h85v-121z" />
    <glyph glyph-name="quotedblbase" unicode="&#x201e;" horiz-adv-x="313" 
d="M272 -4c0 -37.333 -5.99902 -67.167 -17.999 -89.5s-34.333 -36.833 -67 -43.5v51c0.666992 0 2.66699 0.666992 6 2s5.66602 2.66602 6.99902 3.99902c4 2.66699 7.33301 5.66699 10 9s5 7 7 11s3.5 7.33301 4.5 10s1.66699 6.83398 2 12.501s0.5 9.5 0.5 11.5v13v13
h-37v118h85v-122zM126.001 -4.00098c0 -38 -5.83301 -67.999 -17.5 -89.999s-34.167 -36.333 -67.5 -43v51c25.333 9.33301 38 31.666 38 66.999c0 8.66699 -0.333008 15 -1 19h-37v118h85v-122z" />
    <glyph glyph-name="dagger" unicode="&#x2020;" 
d="M351 394h-122v-507h-79v507h-126v73h126v239h79v-239h122v-73z" />
    <glyph glyph-name="daggerdbl" unicode="&#x2021;" 
d="M351 119h-123v-232h-78v232h-126v73h126v236h-126v72h126v206h78v-206h123v-72h-123v-236h123v-73z" />
    <glyph glyph-name="bullet" unicode="&#x2022;" horiz-adv-x="341" 
d="M263 232h-186v249h186v-249z" />
    <glyph glyph-name="ellipsis" unicode="&#x2026;" horiz-adv-x="1000" 
d="M875 0h-84v100h84v-100zM542 0h-84v100h84v-100zM209 0h-84v100h84v-100z" />
    <glyph glyph-name="perthousand" unicode="&#x2030;" horiz-adv-x="875" 
d="M854 221c0 -0.666992 -0.99707 -36.001 -2.99707 -106.001c0 -34 -4 -59 -12 -75c-16 -30 -45.667 -45 -89 -45c-26.667 0 -48 5.33301 -64 16c-12.667 8 -21.834 19.5 -27.501 34.5s-8.83398 28.833 -9.50098 41.5s-1.33398 36 -2.00098 70
c0 6.66699 -0.166992 16.834 -0.5 30.501s-0.5 24.167 -0.5 31.5c0 11.333 0.166992 28.333 0.5 51s0.5 39.667 0.5 51c0 55.333 13.667 91.666 41 108.999c18 11.333 38.333 17 61 17c20 0 38 -4.33301 54 -13c33.333 -17.333 50 -56 50 -116
c0 -10.667 0.166992 -26.667 0.5 -48s0.5 -37.666 0.5 -48.999zM604.003 220.999c0 -47.333 -0.330078 -82.668 -0.99707 -106.001c0 -31.333 -4.66699 -56.333 -14 -75c-16 -30 -45.667 -45 -89 -45c-26.667 0 -48 5.33301 -64 16c-12.667 8 -21.834 19.5 -27.501 34.5
s-8.83398 28.833 -9.50098 41.5s-1.33398 36 -2.00098 70c0 6.66699 -0.166992 16.834 -0.5 30.501s-0.5 24.167 -0.5 31.5c0 11.333 0.166992 28.333 0.5 51s0.5 39.667 0.5 51c0 55.333 13.667 91.666 41 108.999c18 11.333 38.333 17 61 17c20 0 38 -4.33301 54 -13
c33.333 -17.333 50 -56 50 -116c0 -10.667 0.166992 -26.667 0.5 -48s0.5 -37.666 0.5 -48.999zM509.006 705.997l-344 -706h-49l347 706h46zM229.006 485.997c0 -24 -0.664062 -59.3311 -1.99707 -105.998c0 -32.667 -4.33301 -57.667 -13 -75c-16 -30 -45.667 -45 -89 -45
c-26.667 0 -48 5.33301 -64 16c-12.667 8 -21.834 19.5 -27.501 34.5s-8.83398 28.833 -9.50098 41.5s-1.33398 36 -2.00098 70c0 6.66699 -0.166992 16.834 -0.5 30.501s-0.5 24.167 -0.5 31.5c0 11.333 0.166992 28.333 0.5 51s0.5 39.667 0.5 51
c0 55.333 13.667 91.666 41 108.999c18 11.333 38.333 17 61 17c20 0 38 -4.33301 54 -13c33.333 -17.333 50 -56 50 -116c0 -10.667 0.166992 -26.834 0.5 -48.501s0.5 -37.834 0.5 -48.501zM786.009 143.999l-0.000976562 75.001v54c0.666992 36 0.666992 54 0 54
c-1.33301 27.333 -5.66602 44.333 -12.999 51c-6 4.66699 -14 7 -24 7c-17.333 0 -28 -9 -32 -27c-2.66699 -14.667 -4 -38.334 -4 -71.001v-66c0 -10 0.166992 -24.5 0.5 -43.5s0.5 -33.167 0.5 -42.5v-38c0 -27.333 12 -41 36 -41c19.333 0 30.333 8.33301 33 25
c2 16 3 37 3 63zM536.008 144c0 8 -0.169922 20.334 -0.50293 37.001s-0.5 29.334 -0.5 38.001l1 54c0 36 -0.333008 54 -1 54v7.5c0 4.33301 -0.166992 7.16602 -0.5 8.49902s-0.666016 4 -0.999023 8s-0.666016 6.66699 -0.999023 8s-1 3.5 -2 6.5s-2 5.16699 -3 6.5
s-2.5 3 -4.5 5s-4 3.5 -6 4.5s-4.66699 1.83301 -8 2.5s-6.66602 1 -9.99902 1c-18 0 -29 -9 -33 -27c-2 -10.667 -3 -34.334 -3 -71.001v-66c0 -10 0.166992 -24.5 0.5 -43.5s0.5 -33.167 0.5 -42.5v-38c0 -27.333 12 -41 36 -41c19.333 0 30.333 8.33301 33 25
c2 16 3 37 3 63zM161.005 409.001c0 8.66699 -0.167969 21.332 -0.500977 37.999s-0.5 29 -0.5 37v34v40v34c-1.33301 26.667 -5 43 -11 49c-5.33301 6 -13.666 9 -24.999 9c-18 0 -29 -9 -33 -27c-2 -11.333 -3 -35 -3 -71v-66c0 -9.33301 0.166992 -23.666 0.5 -42.999
s0.5 -34 0.5 -44v-37c0 -27.333 11.667 -41 35 -41c20 0 31.333 8.33301 34 25c2 16 3 37 3 63z" />
    <glyph glyph-name="guilsinglleft" unicode="&#x2039;" horiz-adv-x="187" 
d="M160 80l-140 158v86l140 156v-116l-74 -83l74 -84v-117z" />
    <glyph glyph-name="guilsinglright" unicode="&#x203a;" horiz-adv-x="187" 
d="M167 238l-139 -158v117l74 84l-74 83v116l139 -156v-86z" />
    <glyph glyph-name="Euro" unicode="&#x20ac;" horiz-adv-x="434" 
d="M403 672l-23.0029 -88.002c-20.667 20 -39.667 34.833 -57 44.5s-38 14.5 -62 14.5c-22.667 0 -41.167 -4.5 -55.5 -13.5s-24 -20.5 -29 -34.5s-8.66699 -30 -11 -48s-2.66602 -36 -0.999023 -54s1.5 -35.333 -0.5 -52h190l-13 -57h-177v-49h167l-12 -57h-155
c-0.666992 -5.33301 -1 -21 -1 -47c0 -66 5 -108.333 15 -127c14 -26.667 40 -40 78 -40c55.333 0 103 20.667 143 62v-97c-46 -26 -100 -39 -162 -39c-34 0 -63.667 7.83301 -89 23.5s-44 38.834 -56 69.501c-5.33301 13.333 -9.16602 29.333 -11.499 48
s-3.66602 33.834 -3.99902 45.501s-0.333008 30.167 0 55.5s0.5 40.666 0.5 45.999h-53l12 57h40v49h-51l11 57h41v55c0 72.667 12.333 125.334 37 158.001c32 42 81.333 63 148 63c54 0 101 -15 141 -45z" />
    <glyph glyph-name="trademark" unicode="&#x2122;" horiz-adv-x="557" 
d="M511 374h-58l7 300l-64 -300h-61l-63 296l6 -296h-55v332h89l54 -264l54 264h91v-332zM193 658h-66v-284h-58v284h-64v48h188v-48z" />
    <glyph glyph-name=".null" horiz-adv-x="0" 
 />
    <glyph glyph-name="nonmarkingreturn" horiz-adv-x="333" 
 />
    </font>
</defs>
</svg>
